<svg width="180" height="180" viewBox="0 0 180 180" fill="none" xmlns="http://www.w3.org/2000/svg">
<path d="M64 1H116C127.218 1 135.571 1.00113 142.19 1.54199C148.799 2.08191 153.592 3.15491 157.706 5.25098C165.044 8.98998 171.01 14.956 174.749 22.2939C176.845 26.4077 177.918 31.2013 178.458 37.8096C178.999 44.4295 179 52.7825 179 64V116C179 127.218 178.999 135.571 178.458 142.19C177.918 148.799 176.845 153.592 174.749 157.706C171.01 165.044 165.044 171.01 157.706 174.749C153.592 176.845 148.799 177.918 142.19 178.458C135.571 178.999 127.218 179 116 179H64C52.7825 179 44.4295 178.999 37.8096 178.458C31.2013 177.918 26.4077 176.845 22.2939 174.749C14.956 171.01 8.98998 165.044 5.25098 157.706C3.15491 153.592 2.08191 148.799 1.54199 142.19C1.00113 135.571 1 127.218 1 116V64C1 52.7825 1.00113 44.4295 1.54199 37.8096C2.08191 31.2013 3.15491 26.4077 5.25098 22.2939C8.98998 14.956 14.956 8.98998 22.2939 5.25098C26.4077 3.15491 31.2013 2.08191 37.8096 1.54199C44.4295 1.00113 52.7825 1 64 1Z" fill="#FFF5ED" stroke="black" stroke-width="2"/>
<path d="M108.899 108.891H72.8096C69.5313 108.891 66.8639 111.551 66.8639 114.821C66.8639 118.09 69.5313 120.75 72.8096 120.75H108.899C112.178 120.75 114.846 118.09 114.846 114.821C114.846 111.551 112.178 108.891 108.899 108.891Z" fill="black"/>
<path d="M105.209 90.2313L119.075 76.4024C121.392 74.0917 121.392 70.3293 119.075 68.0173C117.953 66.8985 116.459 66.2817 114.87 66.2817C113.28 66.2817 111.789 66.8985 110.666 68.0173L96.7998 81.8475V62.2897C96.7998 59.0204 94.1324 56.3604 90.8541 56.3604C87.5758 56.3604 84.9072 59.0204 84.9072 62.2897V81.8475L71.0402 68.0173C69.9184 66.8985 68.4247 66.2817 66.8361 66.2817C65.2475 66.2817 63.7539 66.8985 62.6307 68.0173C60.3137 70.3293 60.3137 74.0917 62.6307 76.4024L76.4977 90.2313H56.8861C53.6078 90.2313 50.9404 92.8914 50.9404 96.162C50.9404 99.4325 53.6078 102.091 56.8861 102.091H124.816C128.094 102.091 130.761 99.4313 130.761 96.1607C130.761 92.8902 128.094 90.2313 124.816 90.2313H105.206H105.209Z" fill="black"/>
<path d="M148.084 66.0648C144.936 58.642 140.429 51.9773 134.691 46.2548C128.953 40.5323 122.269 36.0383 114.827 32.9002C107.122 29.6485 98.936 28 90.4987 28C82.0614 28 73.8758 29.6485 66.1696 32.9014C58.7276 36.0395 52.0433 40.5323 46.3051 46.2561C40.5668 51.9786 36.0617 58.6433 32.9124 66.0661C29.6531 73.7524 28 81.9156 28 90.3272C28 98.7388 29.6531 106.902 32.9136 114.59C36.0617 122.011 40.5668 128.677 46.3063 134.4C52.0459 140.122 58.7276 144.615 66.1708 147.755C73.8784 151.007 82.064 152.656 90.5 152.656C98.936 152.656 107.122 151.007 114.829 147.755C122.272 144.616 128.955 140.122 134.694 134.4C140.432 128.677 144.937 122.012 148.086 114.59C151.347 106.903 153 98.7401 153 90.3272C153 81.9143 151.347 73.7524 148.086 66.0648H148.084ZM140.796 90.3272C140.796 103.725 135.564 116.321 126.064 125.795C116.566 135.269 103.934 140.487 90.4987 140.487C77.063 140.487 64.4318 135.269 54.9333 125.795C45.4336 116.323 40.2013 103.726 40.2013 90.3272C40.2013 76.9284 45.4336 64.333 54.9333 54.8594C64.433 45.3858 77.0643 40.1678 90.4987 40.1678C103.933 40.1678 116.564 45.3858 126.064 54.8594C135.564 64.333 140.796 76.9297 140.796 90.3272Z" fill="black"/>
</svg>
