<svg width="232" height="64" viewBox="0 0 232 64" fill="none" xmlns="http://www.w3.org/2000/svg">
<path d="M27.3428 9.95057L37.2403 47H31.7888L23.4791 15.8785L19.139 32.1802H25.4374C26.3372 35.4617 24.4847 37.473 20.6739 37.473H17.71L15.1695 47H9.7179L19.6154 9.95057H27.3428ZM51.3565 12.597C47.281 12.597 46.0637 14.8199 46.0637 18.6307V20.5361H58.2371V23.7118C59.9837 21.383 62.7359 20.1127 66.7055 20.1127V25.4055C60.513 25.4055 58.2371 28.0519 58.2371 34.0327V47H52.9443V25.8289H46.0637V47H40.7709V25.8289H38.1245V20.5361H40.7709V18.7366C40.7709 11.856 44.37 7.30418 51.3565 7.30418V12.597ZM81.764 47.4763C73.8778 47.4763 68.1087 42.0248 68.1087 33.7681C68.1087 25.5643 73.8778 20.1127 81.764 20.1127C89.6503 20.1127 95.3665 25.5113 95.3665 33.7681C95.3665 42.0777 89.6503 47.4763 81.764 47.4763ZM73.4014 33.7681C73.4014 39.0608 76.8417 42.1836 81.764 42.1836C86.6863 42.1836 90.0737 39.0608 90.0737 33.7681C90.0737 28.4753 86.6863 25.4055 81.764 25.4055C76.8417 25.4055 73.4014 28.4753 73.4014 33.7681Z" fill="black"/>
<path d="M121.108 47H97.2906V9.95057H102.583V41.7072H121.108V47ZM130.978 20.5361V47H125.685V20.5361H130.978ZM125.685 15.2433C125.685 13.7614 126.849 12.597 128.331 12.597C129.813 12.597 130.978 13.7614 130.978 15.2433C130.978 16.7253 129.813 17.8897 128.331 17.8897C126.849 17.8897 125.685 16.7253 125.685 15.2433ZM157.54 33.7681C157.54 28.6341 154.311 25.4055 149.23 25.4055C144.149 25.4055 140.868 28.6341 140.868 33.7681V47H135.575V33.7681C135.575 25.723 141.185 20.1127 149.23 20.1127C157.275 20.1127 162.833 25.6701 162.833 33.7681V47H157.54V33.7681ZM178.956 47.4763C171.07 47.4763 165.301 42.0248 165.301 33.7681C165.301 25.5643 171.07 20.1127 178.956 20.1127C186.842 20.1127 192.558 25.5113 192.558 33.7681C192.558 42.0777 186.842 47.4763 178.956 47.4763ZM165.777 51.1813H171.07C171.07 55.045 174.457 57.956 178.956 57.956C183.455 57.956 186.842 55.045 186.842 51.1813H192.135C192.135 58.009 186.419 63.2488 178.956 63.2488C171.493 63.2488 165.777 58.009 165.777 51.1813ZM170.593 33.7681C170.593 39.0608 174.034 42.1836 178.956 42.1836C183.878 42.1836 187.266 39.0608 187.266 33.7681C187.266 28.4753 183.878 25.4055 178.956 25.4055C174.034 25.4055 170.593 28.4753 170.593 33.7681ZM187.266 20.5361V15.2433C190.706 15.2433 192.558 17.0958 192.558 20.5361H187.266ZM208.694 47.4763C200.808 47.4763 195.039 42.0248 195.039 33.7681C195.039 25.5643 200.808 20.1127 208.694 20.1127C216.58 20.1127 222.297 25.5113 222.297 33.7681C222.297 42.0777 216.58 47.4763 208.694 47.4763ZM200.332 33.7681C200.332 39.0608 203.772 42.1836 208.694 42.1836C213.616 42.1836 217.004 39.0608 217.004 33.7681C217.004 28.4753 213.616 25.4055 208.694 25.4055C203.772 25.4055 200.332 28.4753 200.332 33.7681Z" fill="#FEB234"/>
</svg>
