<svg width="144" height="52" viewBox="0 0 144 52" fill="none" xmlns="http://www.w3.org/2000/svg">
<path d="M13.8984 10.9171L20.8663 37H17.0284L11.1784 15.0904L8.12295 26.5669H12.557C13.1905 28.877 11.8863 30.293 9.20353 30.293H7.1169L5.32836 37H1.49045L8.4583 10.9171H13.8984ZM31.3009 12.7802C28.4318 12.7802 27.5748 14.3452 27.5748 17.028V18.3694H36.1449V20.6051C37.3745 18.9656 39.3121 18.0713 42.1067 18.0713V21.7974C37.7471 21.7974 36.1449 23.6605 36.1449 27.871V37H32.4187V22.0955H27.5748V37H23.8487V22.0955H21.9856V18.3694H23.8487V17.1025C23.8487 12.2585 26.3824 9.05407 31.3009 9.05407V12.7802ZM53.2047 37.3354C47.6528 37.3354 43.5913 33.4974 43.5913 27.6847C43.5913 21.9092 47.6528 18.0713 53.2047 18.0713C58.7566 18.0713 62.7808 21.8719 62.7808 27.6847C62.7808 33.5347 58.7566 37.3354 53.2047 37.3354ZM47.3174 27.6847C47.3174 31.4108 49.7394 33.6092 53.2047 33.6092C56.67 33.6092 59.0547 31.4108 59.0547 27.6847C59.0547 23.9586 56.67 21.7974 53.2047 21.7974C49.7394 21.7974 47.3174 23.9586 47.3174 27.6847ZM68.7223 9.05407V37H64.9961V9.05407H68.7223ZM76.1818 18.3694V37H72.4557V18.3694H76.1818ZM72.4557 14.6433C72.4557 13.5999 73.2754 12.7802 74.3187 12.7802C75.362 12.7802 76.1818 13.5999 76.1818 14.6433C76.1818 15.6866 75.362 16.5063 74.3187 16.5063C73.2754 16.5063 72.4557 15.6866 72.4557 14.6433ZM95.3786 27.6847C95.3786 24.0703 93.1057 21.7974 89.5286 21.7974C85.9515 21.7974 83.6413 24.0703 83.6413 27.6847V37H79.9152V27.6847C79.9152 22.021 83.8649 18.0713 89.5286 18.0713C95.1923 18.0713 99.1047 21.9837 99.1047 27.6847V37H95.3786V27.6847ZM110.952 37.3354C105.4 37.3354 101.339 33.4974 101.339 27.6847C101.339 21.9092 105.4 18.0713 110.952 18.0713C116.504 18.0713 120.528 21.8719 120.528 27.6847C120.528 33.5347 116.504 37.3354 110.952 37.3354ZM101.674 39.9436H105.4C105.4 42.6637 107.785 44.7131 110.952 44.7131C114.12 44.7131 116.504 42.6637 116.504 39.9436H120.23C120.23 44.7503 116.206 48.4392 110.952 48.4392C105.699 48.4392 101.674 44.7503 101.674 39.9436ZM105.065 27.6847C105.065 31.4108 107.487 33.6092 110.952 33.6092C114.418 33.6092 116.802 31.4108 116.802 27.6847C116.802 23.9586 114.418 21.7974 110.952 21.7974C107.487 21.7974 105.065 23.9586 105.065 27.6847ZM116.802 18.3694V14.6433C119.224 14.6433 120.528 15.9474 120.528 18.3694H116.802ZM132.385 37.3354C126.833 37.3354 122.771 33.4974 122.771 27.6847C122.771 21.9092 126.833 18.0713 132.385 18.0713C137.937 18.0713 141.961 21.8719 141.961 27.6847C141.961 33.5347 137.937 37.3354 132.385 37.3354ZM126.498 27.6847C126.498 31.4108 128.92 33.6092 132.385 33.6092C135.85 33.6092 138.235 31.4108 138.235 27.6847C138.235 23.9586 135.85 21.7974 132.385 21.7974C128.92 21.7974 126.498 23.9586 126.498 27.6847Z" fill="#121212"/>
</svg>
