<svg width="490" height="336" viewBox="0 0 490 336" fill="none" xmlns="http://www.w3.org/2000/svg">
<path d="M125.966 84.1971C125.966 84.1971 121.428 91.5091 112.603 89.4921C103.778 87.4751 102.518 78.3981 102.518 78.3981C102.518 78.3981 92.9366 97.8121 73.2706 97.8121C53.6046 97.8121 43.7706 83.4411 42.7626 73.6071C42.7626 73.6071 35.9546 79.9101 26.8786 74.8681C17.8016 69.8251 22.0876 63.0181 22.0876 63.0181C22.0876 63.0181 13.5146 65.2871 9.22858 60.2451C4.94258 55.2021 12.5066 46.8821 22.3396 48.6471C22.3396 48.6471 16.2886 37.3011 23.8526 29.9891C31.4166 22.6771 40.7456 33.5191 40.7456 33.5191C40.7456 33.5191 38.9806 14.3571 58.8996 5.78411C78.8186 -2.78889 92.1816 10.3221 92.4336 19.6511C92.4336 19.6511 107.31 11.3311 112.1 25.1981C112.1 25.1981 120.925 9.8181 141.6 16.8781C162.275 23.9381 157.484 40.5791 157.484 40.5791C157.484 40.5791 170.595 36.5451 175.386 48.8991C175.386 48.8991 187.236 43.3521 191.522 55.4551C191.522 55.4551 201.355 49.4041 206.65 58.9851C211.945 68.5661 203.877 73.8611 199.338 73.1041C199.338 73.1041 201.103 85.7111 189.001 85.4581C176.899 85.2061 169.587 79.6591 169.587 79.6591C169.587 79.6591 167.57 96.8041 155.72 99.0731C143.868 101.342 128.236 94.5351 125.966 84.1971Z" fill="white"/>
<path d="M207.126 59.9129C194.093 53.6209 185.873 64.3089 185.873 64.3089C185.873 64.3089 185.174 60.7879 179.407 59.2509C173.64 57.7139 169.096 61.6619 169.096 61.6619C169.096 61.6619 164.378 52.3999 158.086 54.1939C151.795 55.9879 148.649 59.2519 148.649 59.2519C148.649 59.2519 149.523 42.6139 137.115 37.4169C124.707 32.2199 113.348 41.5659 113.348 41.5659C103.212 22.8669 92.3766 43.4879 92.3766 43.4879C84.6876 36.6719 78.2216 45.0609 78.2216 45.0609C78.2216 45.0609 75.0756 28.4589 61.6196 29.8569C48.1636 31.2549 45.1926 43.6629 45.1926 43.6629C45.3676 38.5949 40.7436 33.5199 40.7436 33.5199C40.7436 33.5199 31.4146 22.6779 23.8506 29.9899C16.2866 37.3019 22.3376 48.6479 22.3376 48.6479C12.5046 46.8829 4.94063 55.2029 9.22663 60.2459C13.5126 65.2889 22.0856 63.0189 22.0856 63.0189C22.0856 63.0189 17.7996 69.8269 26.8766 74.8689C35.9536 79.9119 42.7606 73.6079 42.7606 73.6079C43.7686 83.4409 53.6026 97.8129 73.2686 97.8129C92.9346 97.8129 102.516 78.3989 102.516 78.3989C102.516 78.3989 103.777 87.4759 112.601 89.4929C121.426 91.5099 125.964 84.1979 125.964 84.1979C128.233 94.5349 143.866 101.343 155.716 99.0739C167.566 96.8049 169.583 79.6599 169.583 79.6599C169.583 79.6599 176.895 85.2069 188.997 85.4589C201.099 85.7109 199.335 73.1049 199.335 73.1049C203.727 73.8349 211.416 68.9059 207.126 59.9129Z" fill="#E9F7FF"/>
<path d="M196.564 68.0614C196.564 68.0614 196.564 75.3734 184.714 76.8864C172.864 78.3994 166.056 68.5664 166.056 68.5664C166.056 68.5664 161.77 86.2154 146.642 87.4764C131.514 88.7374 130.253 71.8444 130.253 71.8444C130.253 71.8444 128.992 78.1474 117.898 80.1644C106.804 82.1814 101.005 67.3054 101.005 67.3054C101.005 67.3054 95.7096 84.1984 71.5046 85.2064C47.2996 86.2154 48.8126 62.2624 48.8126 62.2624C48.8126 62.2624 44.2746 69.5744 34.4406 68.0614C24.6066 66.5484 28.8946 54.1934 28.8946 54.1934C20.3936 59.7674 12.9766 59.1774 8.03662 57.5364C8.14062 58.4884 8.51962 59.4114 9.22762 60.2444C13.5136 65.2874 22.0866 63.0174 22.0866 63.0174C22.0866 63.0174 17.8006 69.8254 26.8776 74.8674C35.9546 79.9104 42.7616 73.6064 42.7616 73.6064C43.7696 83.4394 53.6036 97.8114 73.2696 97.8114C92.9356 97.8114 102.517 78.3974 102.517 78.3974C102.517 78.3974 103.778 87.4744 112.602 89.4914C121.427 91.5084 125.965 84.1964 125.965 84.1964C128.234 94.5334 143.867 101.341 155.717 99.0724C167.567 96.8034 169.584 79.6584 169.584 79.6584C169.584 79.6584 176.896 85.2054 188.998 85.4574C201.1 85.7094 199.336 73.1034 199.336 73.1034C203.348 73.7724 210.112 69.7084 207.97 62.1384C204.149 70.1404 196.564 68.0614 196.564 68.0614Z" fill="#CFEBFF"/>
<path d="M37.9727 54.1934C37.9727 54.1934 47.6897 74.1824 62.3667 57.9614C62.3667 57.9614 51.6407 64.2634 37.9727 54.1934Z" fill="#CFEBFF"/>
<path d="M121.618 60.4985C121.618 60.4985 120.963 69.8285 129.721 71.9565C138.478 74.0845 142.898 68.0275 142.898 68.0275C142.898 68.0275 130.212 74.2485 121.618 60.4985Z" fill="#CFEBFF"/>
<path d="M489.681 72.2518H284.004C284.004 72.2518 283.421 60.5818 299.466 62.0408C299.466 62.0408 295.965 56.7898 298.591 52.1218C301.217 47.4538 310.844 50.0798 310.844 50.0798C310.844 50.0798 305.301 37.5348 316.387 29.3658C327.473 21.1968 337.684 32.2828 337.684 32.2828C337.684 32.2828 339.143 22.0718 349.937 28.4898C349.937 28.4898 349.062 9.23478 368.317 1.64978C387.572 -5.93522 401.829 15.0948 401.829 15.0948C401.829 15.0948 404.493 3.69178 415.288 5.44178C426.082 7.19178 426.082 15.0948 426.082 15.0948C426.082 15.0948 444.17 10.6938 443.878 27.9058C443.878 27.9058 457.006 27.0308 455.548 38.9918C455.548 38.9918 476.262 35.1988 476.553 56.7878C476.553 56.7878 491.14 59.1228 489.681 72.2518Z" fill="white"/>
<path d="M460.283 60.6617C460.283 60.6617 461.817 55.2937 456.066 51.4597C450.315 47.6257 443.988 51.4597 443.988 51.4597C443.988 51.4597 444.18 42.0657 434.403 39.9577C424.626 37.8487 420.217 46.6677 419.833 46.8587C419.45 47.0507 420.025 37.4647 411.015 38.0397C402.005 38.6147 399.513 46.6667 399.513 46.6667C394.529 30.3717 381.876 24.6207 370.374 32.0967C358.872 39.5727 363.089 49.3497 363.089 49.3497C346.411 39.1897 346.027 56.4427 346.027 56.4427C322.064 38.6137 319.955 56.4427 319.955 56.4427C317.079 51.2667 310.844 50.0767 310.844 50.0767C310.361 49.9647 309.893 49.8647 309.425 49.7637C306.653 49.2397 300.592 48.5597 298.59 52.1187C295.964 56.7867 299.465 62.0377 299.465 62.0377C283.419 60.5787 284.003 72.2487 284.003 72.2487H478.494C476.578 57.1937 460.283 60.6617 460.283 60.6617Z" fill="#E9F7FF"/>
<path d="M488.304 64.41C478.071 74.706 462.968 67.756 462.968 67.756C453.897 73.462 444.564 65.964 444.564 65.964C433.253 75.675 422.134 65.422 422.134 65.422C402.005 76.892 392.42 63.729 392.42 63.729C380.151 74.465 365.965 65.261 365.965 65.261C349.67 74.653 339.126 63.537 339.126 63.537C320.147 75.231 314.396 61.812 314.396 61.812C299.263 72.978 290.443 67.932 287.144 64.964C283.799 68.013 284.005 72.251 284.005 72.251H489.682C490.04 69.028 489.427 66.457 488.304 64.41Z" fill="#CFEBFF"/>
<path d="M331.338 60.8501C331.338 60.8501 337.191 71.8951 348.991 60.8501C348.991 60.8501 338.702 65.3811 331.338 60.8501Z" fill="#CFEBFF"/>
<path d="M384.393 60.8501C384.393 60.8501 389.396 71.8011 400.536 62.8321C400.536 62.8321 391.757 66.1371 384.393 60.8501Z" fill="#CFEBFF"/>
<path d="M438.014 64.3433C438.014 64.3433 444.15 72.7453 450.57 64.8153C450.57 64.8153 445.095 66.7973 438.014 64.3433Z" fill="#CFEBFF"/>
<path d="M463.153 170.113H279.065C279.065 170.113 273.814 159.319 286.65 156.985C286.65 156.985 277.023 145.607 295.11 140.356C295.11 140.356 291.609 124.894 305.321 113.516C319.033 102.138 338.288 119.934 338.288 119.934C338.288 119.934 344.123 112.057 352 118.184C352 118.184 355.021 103.597 370.577 103.013C386.133 102.43 400.844 122.268 400.844 122.268C400.844 122.268 405.68 114.683 414.141 117.017C422.601 119.351 423.185 132.188 423.185 132.188C423.185 132.188 433.688 126.061 443.899 131.896C454.11 137.731 452.651 157.278 452.651 157.278C452.651 157.278 466.07 155.526 463.153 170.113Z" fill="white"/>
<path d="M452.65 157.276C433.589 130.795 411.871 147.114 411.871 147.114C404.475 133.835 393.717 145.397 393.717 145.397C393.717 145.397 388.338 127.28 375.395 127.28C362.452 127.28 358.418 139.046 358.418 139.046C344.299 122.741 336.23 144.089 336.23 144.089C336.23 144.089 332.364 132.491 319.925 134.172C307.486 135.853 303.116 146.106 303.116 146.106C300.595 141.4 295.109 140.356 295.109 140.356C277.021 145.607 286.649 156.985 286.649 156.985C273.812 159.319 279.064 170.113 279.064 170.113H463.153C466.07 155.526 452.65 157.276 452.65 157.276Z" fill="#E9F7FF"/>
<path d="M442.632 159.72C442.632 159.72 436.917 166.612 425.319 166.666C413.721 166.721 408.342 160.896 408.342 160.896C408.342 160.896 405.821 165.434 397.08 164.93C388.339 164.426 386.995 158.375 386.995 158.375C386.995 158.375 382.12 165.771 372.707 165.939C363.294 166.107 360.268 159.215 360.268 159.215C360.268 159.215 356.066 165.434 345.308 165.266C334.55 165.098 332.701 158.374 332.701 158.374C332.701 158.374 326.818 165.77 315.556 166.592C304.294 167.414 298.915 161.064 298.915 161.064C289.608 169.567 282.031 166.445 278.166 163.618C277.512 166.911 279.063 170.112 279.063 170.112H463.153C463.51 168.326 463.62 166.788 463.542 165.458C445.18 170.7 442.632 159.72 442.632 159.72Z" fill="#CFEBFF"/>
<path d="M325.305 156.19C325.305 156.19 331.524 166.107 339.761 156.19C339.761 156.19 333.877 159.887 325.305 156.19Z" fill="#CFEBFF"/>
<path d="M379.094 156.19C379.094 156.19 384.305 166.443 395.399 156.19C395.399 156.19 388.339 159.383 379.094 156.19Z" fill="#CFEBFF"/>
<path d="M64.2511 187.646C64.2511 187.646 53.7481 173.351 45.5791 187.646C45.5791 187.646 36.2431 176.267 21.0731 187.646C5.90309 199.024 15.2381 217.694 23.6991 221.195C23.6991 221.195 16.1141 226.156 17.8641 232.866C19.6141 239.576 29.2421 238.992 29.2421 238.992C29.2421 238.992 24.5741 245.411 30.9921 251.246C37.4101 257.081 46.1631 248.329 46.1631 248.329C46.1631 248.329 50.2471 261.166 61.0421 262.333C71.8361 263.5 80.8801 253.58 80.8801 253.58C80.8801 253.58 82.9221 259.707 89.3401 259.415C95.7581 259.123 96.0501 255.04 96.0501 255.04C96.0501 255.04 103.927 267.001 116.472 255.915C116.472 255.915 127.266 272.734 146.813 262.428C166.36 252.122 159.941 231.701 146.813 223.532C146.813 223.532 153.231 204.569 128.142 204.569C128.142 204.569 126.975 188.522 109.762 191.148C109.762 191.148 105.386 170.727 88.1731 169.268C70.9601 167.809 63.9591 180.936 64.2511 187.646Z" fill="white"/>
<path d="M159.122 245.664C147.758 221.434 131.965 233.014 131.965 233.014C131.965 233.014 134.65 224.063 127.042 222.72C119.434 221.377 114.734 227.419 114.734 227.419C114.734 227.419 112.944 214.664 104.664 214.888C96.384 215.112 91.909 222.944 91.909 222.944C93.923 211.532 87.657 193.853 74.679 197.21C61.7 200.567 60.581 215.112 60.581 215.112C52.078 194.749 42.679 210.413 42.679 210.413C41.113 203.924 29.924 193.406 20.973 196.092C17.3 197.194 14.758 199.502 13.037 201.841C12.573 210.578 18.308 218.967 23.699 221.198C23.699 221.198 16.114 226.158 17.864 232.868C19.614 239.578 29.242 238.995 29.242 238.995C29.242 238.995 24.574 245.413 30.992 251.248C37.41 257.083 46.163 248.331 46.163 248.331C46.163 248.331 50.247 261.168 61.042 262.335C71.836 263.502 80.88 253.583 80.88 253.583C80.88 253.583 82.922 259.709 89.34 259.418C95.758 259.126 96.05 255.042 96.05 255.042C96.05 255.042 103.927 267.003 116.472 255.917C116.472 255.917 127.266 272.737 146.813 262.431C155.059 258.08 158.671 251.932 159.122 245.664Z" fill="#E9F7FF"/>
<path d="M134.65 260.985C122.486 259.543 116.748 245.545 116.748 245.545C116.748 245.545 115.853 252.706 107.573 254.943C99.293 257.181 95.265 246.663 95.265 246.663C95.265 246.663 93.251 252.705 88.999 253.376C84.747 254.047 82.062 244.201 82.062 244.201C82.062 244.201 73.335 256.061 63.041 256.956C52.748 257.851 49.838 240.397 49.838 240.397C49.838 240.397 40.44 248.229 35.517 245.544C30.594 242.859 36.86 232.341 36.86 232.341C24.312 238.058 19.67 233.089 17.953 228.531C17.567 229.857 17.458 231.311 17.864 232.865C19.614 239.575 29.242 238.992 29.242 238.992C29.242 238.992 24.574 245.41 30.992 251.245C37.41 257.08 46.163 248.328 46.163 248.328C46.163 248.328 50.247 261.165 61.042 262.332C71.836 263.499 80.88 253.58 80.88 253.58C80.88 253.58 82.922 259.706 89.34 259.415C95.758 259.123 96.05 255.039 96.05 255.039C96.05 255.039 103.927 267 116.472 255.914C116.472 255.914 127.266 272.734 146.813 262.428C152.821 259.26 156.36 255.135 158.017 250.705C151.709 258.169 144.909 262.202 134.65 260.985Z" fill="#CFEBFF"/>
<path d="M44.693 233.909C44.693 233.909 43.35 248.007 55.658 241.965C55.658 241.965 48.274 242.188 44.693 233.909Z" fill="#CFEBFF"/>
<path d="M108.916 243.47C108.916 243.47 116.749 255.72 126.146 243.47C126.146 243.47 118.986 249.003 108.916 243.47Z" fill="#CFEBFF"/>
<path d="M476.711 305.428H304C304 305.428 308.96 292.3 328.798 295.509C328.798 295.509 327.631 287.048 335.8 283.839C343.969 280.63 352.721 283.839 352.721 283.839C352.721 283.839 353.304 274.211 363.224 276.254C363.224 276.254 366.433 257.583 388.314 252.915C410.195 248.247 417.78 266.627 417.78 266.627C417.78 266.627 430.325 263.71 434.409 275.379C434.409 275.379 453.372 275.087 455.998 290.258C455.998 290.258 476.419 291.717 476.711 305.428Z" fill="white"/>
<path d="M446.863 295.509C441.045 283.02 426.276 290.768 426.276 290.768C421.129 280.698 413.297 287.859 413.297 287.859C413.297 287.859 410.164 273.538 394.948 273.538C379.731 273.538 373.018 289.426 373.018 289.426C373.018 289.426 366.752 284.951 360.487 286.517C354.222 288.083 352.655 294.573 352.655 294.573C337.215 283.717 328.798 295.51 328.798 295.51C308.96 292.301 304 305.429 304 305.429H476.711C476.419 291.717 455.997 290.258 455.997 290.258C449.691 291.538 446.863 295.509 446.863 295.509Z" fill="#E9F7FF"/>
<path d="M474.856 299.205C465.549 306.783 443.731 300.798 443.731 300.798C435.228 306.352 426.277 299.495 426.277 299.495C414.193 307.775 403.9 298.416 403.9 298.416C387.341 308.973 373.467 298.416 373.467 298.416C359.593 307.183 347.062 299.567 347.062 299.567C328.489 307.695 308.59 299.567 308.59 299.567C305.164 302.371 304.002 305.428 304.002 305.428H476.713C476.659 302.982 475.958 300.933 474.856 299.205Z" fill="#CFEBFF"/>
<path d="M366.977 295.915C366.977 295.915 372.571 304.866 379.956 295.915C379.956 295.915 374.361 298.6 366.977 295.915Z" fill="#CFEBFF"/>
<path d="M419.787 298.416C419.787 298.416 423.815 304.99 432.542 299.893C432.542 299.893 426.276 300.693 419.787 298.416Z" fill="#CFEBFF"/>
<path d="M103.98 335.795H0.0014186C0.0014186 335.795 -0.238218 330.764 5.51168 331.483C5.51168 331.483 0.720338 321.18 12.2201 321.899C12.2201 321.899 11.5012 312.316 18.2097 309.92C24.9181 307.524 27.5534 314.711 27.5534 314.711C27.5534 314.711 31.6266 309.68 34.5015 313.753C34.5015 313.753 36.8972 301.774 46.241 297.221C55.5847 292.669 58.4597 304.169 58.4597 304.169C58.4597 304.169 67.0845 298.18 71.8766 312.555C71.8766 312.555 80.2618 307.763 83.3764 318.784C83.3764 318.784 91.7616 314.711 94.1572 325.253C94.1572 325.253 105.657 323.097 103.98 335.795Z" fill="white"/>
<path d="M86.9934 329.438C84.0533 321.536 77.8053 326.497 77.8053 326.497C71.3734 316.023 62.0014 324.108 62.0014 324.108C62.0014 324.108 56.4883 313.634 50.2403 314.185C43.9923 314.736 40.6844 324.749 40.6844 324.749C35.9061 315.651 27.0857 324.749 27.0857 324.749C22.6752 317.856 18.2647 327.599 18.2647 327.599C16.795 322.086 12.2201 321.899 12.2201 321.899C0.720338 321.18 5.51168 331.483 5.51168 331.483C-0.238218 330.764 0.0014186 335.796 0.0014186 335.796H103.98C105.657 323.098 94.1572 325.254 94.1572 325.254C89.3768 326.767 86.9934 329.438 86.9934 329.438Z" fill="#E9F7FF"/>
<path d="M103.98 335.795C104.183 334.261 104.19 332.948 104.051 331.817C97.6845 336.514 86.1304 332.861 86.1304 332.861C81.5758 336.291 78.1347 331.483 78.1347 331.483C71.1512 337.583 62.4474 331.483 62.4474 331.483C57.2854 336.976 52.0741 331.483 52.0741 331.483C46.1548 337.684 40.6865 331.483 40.6865 331.483C33.2983 337.381 26.0113 331.483 26.0113 331.483C19.0278 336.875 15.7894 331.483 15.7894 331.483C8.1984 336.369 5.51241 331.483 5.51241 331.483C-0.237488 330.764 0.00215106 335.796 0.00215106 335.796H103.98V335.795Z" fill="#CFEBFF"/>
<path d="M22.5702 330.342C22.5702 330.342 25.4039 335.403 30.2618 330.342C30.2618 330.342 26.2133 332.367 22.5702 330.342Z" fill="#CFEBFF"/>
<path d="M57.892 330.342C57.4873 330.198 61.5358 335.2 67.0012 330.848C67.0012 330.848 63.5601 332.367 57.892 330.342Z" fill="#CFEBFF"/>
<path d="M209.24 221.743C209.24 221.743 201.791 215.479 205.854 205.151C209.917 194.824 223.631 195.501 230.911 210.061C230.911 210.061 236.498 202.95 242.253 213.785C242.253 213.785 243.27 204.643 258.167 202.273C273.065 199.903 271.881 211.754 268.156 215.647C268.156 215.647 273.743 213.616 278.652 215.647C283.561 217.679 276.451 219.71 276.451 219.71C276.451 219.71 282.715 220.049 285.932 222.419C289.148 224.79 289.487 228.344 280.514 228.176C280.514 228.176 287.794 230.207 287.286 233.255C286.778 236.303 280.345 235.456 280.345 235.456C280.345 235.456 285.424 239.688 282.545 243.582C279.667 247.475 273.573 246.799 269.171 242.566C269.171 242.566 267.817 249.508 262.06 245.275C262.06 245.275 260.029 251.2 252.58 251.708C245.13 252.217 240.898 247.815 238.528 242.228C238.528 242.228 231.925 248.661 230.74 240.704C230.74 240.704 224.645 248.661 217.873 245.445C211.101 242.228 210.255 238.334 210.593 235.625C210.593 235.625 206.361 237.657 203.313 233.932C200.266 230.208 205.514 228.345 205.514 228.345C205.514 228.345 202.129 227.653 201.113 224.952C200.098 222.251 206.193 221.235 209.24 221.743Z" fill="white"/>
<path d="M287.286 233.255C287.794 230.207 280.515 228.176 280.515 228.176C273.919 227.205 270.089 229.289 270.089 229.289C270.089 229.289 273.022 224.927 267.944 224.426C262.866 223.925 259.433 228.073 259.433 228.073C259.433 228.073 259.648 215.414 250.779 217.6C241.911 219.787 238.192 229.932 238.192 229.932C238.192 229.932 234.83 220.778 229.967 221.922C225.103 223.067 224.532 228.359 224.532 228.359C221.456 221.279 216.164 217.202 212.302 217.631C208.44 218.06 209.24 221.742 209.24 221.742C206.192 221.234 200.098 222.25 201.113 224.951C202.129 227.653 205.515 228.345 205.515 228.345C205.515 228.345 200.266 230.207 203.314 233.932C206.362 237.657 210.594 235.625 210.594 235.625C210.255 238.334 211.102 242.228 217.874 245.445C224.646 248.662 230.74 240.704 230.74 240.704C231.926 248.661 238.528 242.228 238.528 242.228C240.899 247.815 245.131 252.216 252.58 251.708C260.029 251.2 262.061 245.275 262.061 245.275C267.817 249.508 269.172 242.566 269.172 242.566C273.573 246.799 279.668 247.476 282.546 243.582C285.424 239.688 280.345 235.456 280.345 235.456C280.345 235.456 286.778 236.302 287.286 233.255Z" fill="#E9F7FF"/>
<path d="M252.58 251.709C260.03 251.201 262.061 245.275 262.061 245.275C267.817 249.508 269.172 242.567 269.172 242.567C273.573 246.799 279.668 247.476 282.546 243.582C285.424 239.688 280.345 235.456 280.345 235.456C280.345 235.456 282.737 241.686 277.622 243.317C272.507 244.948 268.06 239.091 268.06 239.091C268.06 239.091 267.985 242.649 265.613 243.613C263.241 244.577 260.943 239.906 260.943 239.906C260.943 239.906 260.424 246.726 251.01 248.209C241.595 249.691 239.817 237.238 239.817 237.238C239.817 237.238 237.444 241.018 234.85 241.685C232.255 242.353 231.514 236.644 231.514 236.644C231.514 236.644 226.992 243.316 218.911 241.982C210.831 240.647 213.945 231.455 213.945 231.455C207.989 236.214 204.231 233.224 202.489 230.95C202.218 231.757 202.348 232.751 203.315 233.933C206.363 237.657 210.595 235.625 210.595 235.625C210.256 238.334 211.103 242.228 217.875 245.445C224.647 248.662 230.741 240.704 230.741 240.704C231.927 248.661 238.529 242.228 238.529 242.228C240.899 247.814 245.131 252.216 252.58 251.709Z" fill="#CFEBFF"/>
<path d="M228.4 234.791C228.4 234.791 229.512 240.203 234.849 236.273C234.849 236.273 231.809 237.163 228.4 234.791Z" fill="#CFEBFF"/>
<path d="M256.569 239.24C256.569 239.24 260.646 241.359 263.538 237.705C263.538 237.705 263.612 245.392 256.569 239.24Z" fill="#CFEBFF"/>
</svg>
