<svg width="24" height="24" viewBox="0 0 24 24" fill="none" xmlns="http://www.w3.org/2000/svg">
<path d="M2.8623 10.0005L6.44399 5H18.5495L22.0806 10.0005L12.4967 20.9358L2.8623 10.0005Z" fill="url(#paint0_linear_fixed)"/>
<path d="M2.8623 10.0005L7.29768 11.5919L12.4967 20.9357L2.8623 10.0005Z" fill="black" fill-opacity="0.1"/>
<path d="M22.0557 10.0005L17.5465 11.5919L12.4961 20.9357L22.0557 10.0005Z" fill="black" fill-opacity="0.1"/>
<path d="M12.4227 6.09328L6.4043 4.99756L7.29744 11.5917H12.3974H12.4479H17.5469L18.44 4.99756L12.4227 6.09328Z" fill="white" fill-opacity="0.4"/>
<path d="M6.4043 4.99756L12.4965 7.1956L18.5492 4.99976L6.4043 4.99756Z" fill="white" fill-opacity="0.6"/>
<path d="M12.4221 6.09326L7.29688 11.5917H17.5463L12.4221 6.09326Z" fill="white" fill-opacity="0.3"/>
<defs>
<linearGradient id="paint0_linear_fixed" x1="12.4715" y1="5" x2="12.4715" y2="20.9358" gradientUnits="userSpaceOnUse">
<stop stop-color="#018ACA"/>
<stop offset="0.401042" stop-color="#0BA5EC"/>
<stop offset="1" stop-color="#0BA5EC"/>
</linearGradient>
</defs>
</svg>
