<svg width="32" height="32" viewBox="0 0 32 32" fill="none" xmlns="http://www.w3.org/2000/svg">
<path d="M29.3333 18.6667V16C29.3333 14.8813 29.3333 13.8871 29.3161 13H2.68383C2.66663 13.8871 2.66663 14.8813 2.66663 16V18.6667C2.66663 23.6949 2.66663 26.2092 4.22872 27.7712C5.79083 29.3333 8.30497 29.3333 13.3333 29.3333H18.6666C23.6949 29.3333 26.2092 29.3333 27.7712 27.7712C29.3333 26.2092 29.3333 23.6949 29.3333 18.6667Z" fill="#FFCB61"/>
<path d="M11.0947 25.084C10.9507 25.084 10.8267 25.052 10.7227 24.988C10.6267 24.916 10.5667 24.82 10.5427 24.7C10.5267 24.572 10.5547 24.432 10.6267 24.28L14.3827 17.116V17.584H10.2547C10.0787 17.584 9.94269 17.54 9.84669 17.452C9.75069 17.356 9.70269 17.228 9.70269 17.068C9.70269 16.9 9.75069 16.772 9.84669 16.684C9.94269 16.588 10.0787 16.54 10.2547 16.54H14.9707C15.1467 16.54 15.2867 16.588 15.3907 16.684C15.5027 16.772 15.5587 16.9 15.5587 17.068C15.5587 17.212 15.5387 17.336 15.4987 17.44C15.4667 17.544 15.4187 17.66 15.3547 17.788L11.7907 24.676C11.7187 24.82 11.6267 24.924 11.5147 24.988C11.4027 25.052 11.2627 25.084 11.0947 25.084ZM20.482 25.108C20.042 25.108 19.598 25.048 19.15 24.928C18.702 24.8 18.294 24.604 17.926 24.34C17.806 24.268 17.726 24.176 17.686 24.064C17.646 23.952 17.638 23.844 17.662 23.74C17.686 23.628 17.734 23.536 17.806 23.464C17.886 23.392 17.982 23.352 18.094 23.344C18.206 23.328 18.326 23.36 18.454 23.44C18.766 23.64 19.086 23.792 19.414 23.896C19.75 24 20.098 24.052 20.458 24.052C20.826 24.052 21.142 23.984 21.406 23.848C21.67 23.712 21.87 23.524 22.006 23.284C22.15 23.036 22.222 22.748 22.222 22.42C22.222 21.916 22.074 21.504 21.778 21.184C21.482 20.864 21.07 20.704 20.542 20.704C20.238 20.704 19.954 20.76 19.69 20.872C19.426 20.976 19.174 21.152 18.934 21.4C18.878 21.464 18.802 21.524 18.706 21.58C18.618 21.628 18.518 21.652 18.406 21.652C18.238 21.652 18.11 21.608 18.022 21.52C17.934 21.432 17.89 21.312 17.89 21.16V17.092C17.89 16.916 17.938 16.78 18.034 16.684C18.13 16.588 18.266 16.54 18.442 16.54H22.462C22.638 16.54 22.774 16.584 22.87 16.672C22.966 16.76 23.014 16.888 23.014 17.056C23.014 17.224 22.966 17.356 22.87 17.452C22.774 17.54 22.638 17.584 22.462 17.584H19.102V20.632H18.766C18.982 20.328 19.266 20.092 19.618 19.924C19.978 19.756 20.374 19.672 20.806 19.672C21.342 19.672 21.806 19.784 22.198 20.008C22.59 20.232 22.894 20.548 23.11 20.956C23.326 21.356 23.434 21.824 23.434 22.36C23.434 22.904 23.314 23.384 23.074 23.8C22.834 24.208 22.494 24.528 22.054 24.76C21.614 24.992 21.09 25.108 20.482 25.108Z" fill="#F5FCFF"/>
<path d="M10.3334 3.3335C10.3334 2.78122 9.88573 2.3335 9.33345 2.3335C8.78117 2.3335 8.33345 2.78122 8.33345 3.3335V5.43918C6.41434 5.59284 5.15447 5.96999 4.22887 6.89559C3.30327 7.82119 2.92613 9.08106 2.77246 11.0002H29.2277C29.0741 9.08106 28.6969 7.82119 27.7713 6.89559C26.8457 5.96999 25.5858 5.59284 23.6668 5.43918V3.3335C23.6668 2.78122 23.219 2.3335 22.6668 2.3335C22.1145 2.3335 21.6668 2.78122 21.6668 3.3335V5.3507C20.7797 5.3335 19.7854 5.3335 18.6668 5.3335H13.3334C12.2147 5.3335 11.2205 5.3335 10.3334 5.3507V3.3335Z" fill="#FFCB61"/>
</svg>
