<svg width="24" height="24" viewBox="0 0 24 24" fill="none" xmlns="http://www.w3.org/2000/svg">
<path d="M12.4316 22.2083C5.38565 22.2083 3.50309 14.8634 4.35405 10.0509C4.39109 9.84149 4.66564 9.78115 4.78527 9.95703C5.15574 10.5015 5.48541 11.288 6.03163 11.2198C6.85261 11.1171 7.42138 3.87282 12.2871 1.83446C12.4415 1.76978 12.6031 1.8925 12.5861 2.05903C12.3455 4.41966 13.7629 7.79925 16.2739 7.79925C17.7133 7.79925 18.6982 6.65044 19.1904 5.4967C19.3399 5.14623 19.8519 5.19041 19.9376 5.56167C20.8158 9.36496 23.1634 22.2083 12.4316 22.2083Z" fill="#FF8F1F"/>
<path d="M9.96158 15.1257C10.1273 14.9865 10.3788 15.0821 10.4164 15.2952C10.5045 15.7939 10.7939 16.6509 11.7434 16.6509C12.8855 16.6509 13.6606 13.5082 13.8639 12.5839C13.8973 12.4318 14.0455 12.3285 14.1981 12.3596C17.0524 12.9399 18.4402 22.2082 12.1644 22.2082C7.59572 22.2082 8.63075 16.2437 9.96158 15.1257ZM17.761 5.08853C17.8615 4.30175 16.4253 6.45369 16.4253 6.45369C16.4253 6.45369 17.5203 6.97088 17.761 5.08853ZM3.28914 16.8223C3.31941 16.4873 2.88852 15.5906 2.81223 15.9456C2.62963 16.7951 3.25886 17.1572 3.28914 16.8223Z" fill="#FFB636"/>
<path d="M14.7808 15.8677C14.6737 15.4212 14.2898 16.4583 14.338 16.8808C14.3863 17.3032 15.0369 16.936 14.7808 15.8677Z" fill="#FFD469"/>
</svg>
