<svg width="24" height="24" viewBox="0 0 24 24" fill="none" xmlns="http://www.w3.org/2000/svg">
<mask id="mask0_2683_24494" style="mask-type:alpha" maskUnits="userSpaceOnUse" x="0" y="0" width="24" height="24">
<rect width="24" height="24" fill="white"/>
</mask>
<g mask="url(#mask0_2683_24494)">
<path d="M12.049 21.8283C10.9653 21.8283 9.88153 21.5113 8.99483 20.7717C5.34951 17.8131 1.99976 14.8545 1.99976 9.88835C1.99976 5.87314 4.56133 4.07685 7.02439 4.07685C8.89631 4.07685 10.7682 5.13349 11.9505 6.92977C13.3298 5.02783 15.2017 3.97119 17.0736 3.97119C19.5367 3.97119 21.9998 5.76747 21.9998 9.88835C21.9998 14.9602 18.9456 17.7075 15.0047 20.7717C14.118 21.5113 13.0342 21.8283 12.049 21.8283Z" fill="url(#paint0_radial_2683_24494)"/>
<path d="M12.049 21.8283C10.9653 21.8283 9.88153 21.5113 8.99483 20.7717C5.34951 17.8131 1.99976 14.8545 1.99976 9.88835C1.99976 5.87314 4.56133 4.07685 7.02439 4.07685C8.89631 4.07685 10.7682 5.13349 11.9505 6.92977C13.3298 5.02783 15.2017 3.97119 17.0736 3.97119C19.5367 3.97119 21.9998 5.76747 21.9998 9.88835C21.9998 14.9602 18.9456 17.7075 15.0047 20.7717C14.118 21.5113 13.0342 21.8283 12.049 21.8283Z" fill="url(#paint1_radial_2683_24494)"/>
<path d="M12.049 21.8283C10.9653 21.8283 9.88153 21.5113 8.99483 20.7717C5.34951 17.8131 1.99976 14.8545 1.99976 9.88835C1.99976 5.87314 4.56133 4.07685 7.02439 4.07685C8.89631 4.07685 10.7682 5.13349 11.9505 6.92977C13.3298 5.02783 15.2017 3.97119 17.0736 3.97119C19.5367 3.97119 21.9998 5.76747 21.9998 9.88835C21.9998 14.9602 18.9456 17.7075 15.0047 20.7717C14.118 21.5113 13.0342 21.8283 12.049 21.8283Z" fill="url(#paint2_radial_2683_24494)"/>
</g>
<defs>
<radialGradient id="paint0_radial_2683_24494" cx="0" cy="0" r="1" gradientTransform="matrix(-5.33333 -20.5026 21.1931 -4.05681 11.9998 27.7807)" gradientUnits="userSpaceOnUse">
<stop stop-color="#EF4444"/>
<stop offset="1" stop-color="#EF4444"/>
</radialGradient>
<radialGradient id="paint1_radial_2683_24494" cx="0" cy="0" r="1" gradientTransform="matrix(4.66667 10.582 -8.75213 3.79867 5.33309 7.27807)" gradientUnits="userSpaceOnUse">
<stop stop-color="#FF8D8D"/>
<stop offset="1" stop-color="#EF4444" stop-opacity="0"/>
</radialGradient>
<radialGradient id="paint2_radial_2683_24494" cx="0" cy="0" r="1" gradientTransform="matrix(-3.16667 12.3595 -12.9547 -4.40012 15.9998 7.60876)" gradientUnits="userSpaceOnUse">
<stop stop-color="#FF8D8D"/>
<stop offset="1" stop-color="#EF4444" stop-opacity="0"/>
</radialGradient>
</defs>
</svg>
