<svg width="39" height="38" viewBox="0 0 39 38" fill="none" xmlns="http://www.w3.org/2000/svg">
<g filter="url(#filter0_d_2235_10316)">
<path d="M20.2432 37.6115C26.6789 36.3871 35 31.9929 35 20.6303C35 10.29 27.0256 3.40445 21.2913 0.240625C20.019 -0.461441 18.5294 0.461847 18.5294 1.85875V5.43176C18.5294 8.24929 17.2814 13.3922 13.8133 15.5313C12.0427 16.6234 10.1305 14.9888 9.91529 12.995L9.73859 11.3578C9.53318 9.45451 7.49084 8.2991 5.88815 9.45953C3.00891 11.5442 0 15.1948 0 20.6303C0 34.526 10.8889 38 16.3333 38C16.6499 38 16.9828 37.991 17.3293 37.9721C18.2474 37.8622 17.3293 38.1659 20.2432 37.6115Z" fill="#FFDB91"/>
</g>
<defs>
<filter id="filter0_d_2235_10316" x="0" y="0" width="39" height="38" filterUnits="userSpaceOnUse" color-interpolation-filters="sRGB">
<feFlood flood-opacity="0" result="BackgroundImageFix"/>
<feColorMatrix in="SourceAlpha" type="matrix" values="0 0 0 0 0 0 0 0 0 0 0 0 0 0 0 0 0 0 127 0" result="hardAlpha"/>
<feOffset dx="4"/>
<feComposite in2="hardAlpha" operator="out"/>
<feColorMatrix type="matrix" values="0 0 0 0 0.6 0 0 0 0 0.430588 0 0 0 0 0.0847059 0 0 0 1 0"/>
<feBlend mode="normal" in2="BackgroundImageFix" result="effect1_dropShadow_2235_10316"/>
<feBlend mode="normal" in="SourceGraphic" in2="effect1_dropShadow_2235_10316" result="shape"/>
</filter>
</defs>
</svg>
