<svg width="40" height="40" viewBox="0 0 40 40" fill="none" xmlns="http://www.w3.org/2000/svg">
<path d="M7.44739 31.1806C7.44739 32.7212 8.69626 33.9701 10.2368 33.9701H29.7628C31.3034 33.9701 32.5522 32.7212 32.5522 31.1806V17.1721C32.5522 16.3791 32.2147 15.6236 31.624 15.0945L21.861 6.34848C20.8017 5.39946 19.1979 5.39946 18.1385 6.34848L8.37557 15.0945C7.78491 15.6236 7.44739 16.3791 7.44739 17.1721V31.1806Z" fill="url(#paint0_linear_2683_24355)"/>
<path d="M15.816 33.9697H24.1843V24.2067C24.1843 23.4364 23.5599 22.812 22.7896 22.812H17.2108C16.4405 22.812 15.816 23.4364 15.816 24.2067V33.9697Z" fill="white" fill-opacity="0.48"/>
<defs>
<linearGradient id="paint0_linear_2683_24355" x1="19.9998" y1="33.9701" x2="19.9998" y2="5.63672" gradientUnits="userSpaceOnUse">
<stop stop-color="#E84909"/>
<stop offset="1" stop-color="#FF6200"/>
</linearGradient>
</defs>
</svg>
