<svg width="40" height="40" viewBox="0 0 40 40" fill="none" xmlns="http://www.w3.org/2000/svg">
<path d="M9.29434 9.21577H14.2864C15.205 9.21577 15.8481 9.12924 15.8481 10.0478V8.38376C15.8481 7.46521 15.205 6.71973 14.2864 6.71973H7.63031C5.96628 6.71973 4.6492 8.48776 5.13426 10.8798C5.13426 10.8798 6.6244 18.68 6.72924 19.165C7.0063 20.448 8.49644 21.696 10.0914 21.696H15.8806C16.8 21.696 15.8481 20.1185 15.8481 19.2V17.5359C15.8481 18.4545 15.205 19.2 14.2864 19.2H10.9584C10.0398 19.2 9.43329 18.333 9.29434 17.5359C9.1554 16.7389 7.97643 11.4348 7.97643 11.4348C7.69937 9.83979 8.37496 9.21577 9.29434 9.21577ZM30.7703 9.21577H25.7782C24.8597 9.21577 23.3363 9.12924 23.3363 10.0478V8.38376C23.3363 7.46521 24.8597 6.71973 25.7782 6.71973H32.4344C34.0984 6.71973 35.4163 8.48776 34.9304 10.8798C34.9304 10.8798 33.5717 18.7166 33.4569 19.2C33.1624 20.448 31.7579 21.696 30.1289 21.696H24.1833C23.2647 21.696 23.3363 20.1185 23.3363 19.2V17.5359C23.3363 18.4545 24.8597 19.2 25.7782 19.2H29.1063C30.0248 19.2 30.6322 18.333 30.7703 17.5359C30.9084 16.7389 32.0882 11.4348 32.0882 11.4348C32.3645 9.83979 31.6897 9.21577 30.7703 9.21577ZM22.3645 23.36C22.3645 17.5709 20.1105 23.36 20.1105 23.36C20.1105 23.36 17.6145 17.5709 17.6145 23.36C17.6145 29.1492 14.8763 31.6802 14.8763 31.6802H25.1035C25.1026 31.6802 22.3645 29.1492 22.3645 23.36Z" fill="#FFAC33"/>
<path d="M29.2621 10.5279C29.2621 16.1648 23.6294 25.6639 20.1099 25.6639C16.5905 25.6639 10.9578 16.1648 10.9578 10.5279C10.9578 6.20555 11.7898 5.27037 13.4538 5.27037C14.597 5.27037 18.4667 5.2479 20.1099 5.2479L25.9341 5.24707C28.361 5.24624 29.2621 5.81617 29.2621 10.5279Z" fill="#FFCC4D"/>
<path d="M27.4961 32.5122C27.4961 33.4307 27.6849 34.1762 26.7664 34.1762H13.4541C12.5348 34.1762 12.5198 33.4307 12.5198 32.5122V31.6801C12.5198 30.7616 13.4882 30.0161 14.3552 30.0161H25.9344C26.8013 30.0161 27.4961 30.7616 27.4961 31.6801V32.5122Z" fill="#C1694F"/>
<path d="M29.1606 33.8642C29.1606 34.4966 29.2978 35.0083 28.1189 35.0083H12.1026C11.0276 35.0083 10.8562 34.4966 10.8562 33.8642V33.6562C10.8562 33.0239 11.4702 32.5122 12.1026 32.5122H28.1189C28.7504 32.5122 29.1606 33.0239 29.1606 33.6562V33.8642Z" fill="#C1694F"/>
</svg>
