<svg width="44" height="44" viewBox="0 0 44 44" fill="none" xmlns="http://www.w3.org/2000/svg">
<circle cx="22" cy="22" r="22" fill="url(#paint0_linear_2244_7530)"/>
<g filter="url(#filter0_d_2244_7530)">
<path d="M29.6713 16.5347C28.3849 16.5347 27.3423 17.5853 27.3423 18.8818V22.4556C27.3423 22.56 27.3231 22.6468 27.2883 22.7298C27.2369 22.8533 27.145 22.9661 27.032 23.0423C26.9174 23.1184 26.7958 23.1604 26.6427 23.1611H25.5158V13.7273C25.5158 11.6686 23.8601 10 21.8172 10C19.7744 10 18.1187 11.6686 18.1187 13.7273V24.7258H17.4352C17.3214 24.7258 17.2251 24.704 17.1332 24.6652C16.9967 24.6076 16.8731 24.5047 16.7888 24.3787C16.7049 24.2507 16.6588 24.1124 16.6576 23.9421V22.1028C16.6576 20.8068 15.6151 19.7557 14.3286 19.7557C13.0426 19.7557 12 20.8068 12 22.1028V23.9421C11.9996 24.6918 12.152 25.4183 12.428 26.0747C12.8423 27.061 13.5288 27.8926 14.3944 28.4827C15.2593 29.0732 16.3178 29.4203 17.4352 29.4196H18.1187V36H25.5158V27.855H26.6427C27.376 27.8554 28.0863 27.7038 28.7286 27.4299C29.6933 27.018 30.5064 26.3368 31.0837 25.4763C31.6609 24.6172 32.0011 23.5658 32 22.4556V18.8818C31.9999 17.5853 30.9573 16.5347 29.6713 16.5347Z" fill="white" fill-opacity="0.99" shape-rendering="crispEdges"/>
</g>
<path d="M5.28705 25.7583C4.76569 25.863 4.25532 25.5255 4.17938 24.9992C3.89773 23.0473 3.94773 21.0594 4.32955 19.1198C4.77344 16.865 5.65711 14.7196 6.93011 12.8063C8.20311 10.8929 9.8405 9.24905 11.7488 7.96851C13.3903 6.86703 15.2045 6.05293 17.1137 5.55862C17.6285 5.42533 18.137 5.76568 18.2418 6.28705V6.28705C18.3465 6.80841 18.0078 7.31304 17.4939 7.44983C15.8324 7.8921 14.2533 8.60708 12.8219 9.56762C11.1236 10.7072 9.66636 12.1702 8.53344 13.873C7.40053 15.5758 6.6141 17.4851 6.21906 19.4918C5.8861 21.1832 5.83667 22.9159 6.07064 24.6193C6.143 25.1461 5.80841 25.6535 5.28705 25.7583V25.7583Z" fill="white" fill-opacity="0.4" style="mix-blend-mode:overlay"/>
<defs>
<filter id="filter0_d_2244_7530" x="12" y="10" width="21" height="29" filterUnits="userSpaceOnUse" color-interpolation-filters="sRGB">
<feFlood flood-opacity="0" result="BackgroundImageFix"/>
<feColorMatrix in="SourceAlpha" type="matrix" values="0 0 0 0 0 0 0 0 0 0 0 0 0 0 0 0 0 0 127 0" result="hardAlpha"/>
<feOffset dx="1" dy="3"/>
<feComposite in2="hardAlpha" operator="out"/>
<feColorMatrix type="matrix" values="0 0 0 0 0 0 0 0 0 0 0 0 0 0 0 0 0 0 0.25 0"/>
<feBlend mode="normal" in2="BackgroundImageFix" result="effect1_dropShadow_2244_7530"/>
<feBlend mode="normal" in="SourceGraphic" in2="effect1_dropShadow_2244_7530" result="shape"/>
</filter>
<linearGradient id="paint0_linear_2244_7530" x1="2.86206" y1="-9.89468e-07" x2="41.1379" y2="44" gradientUnits="userSpaceOnUse">
<stop stop-color="#959595"/>
<stop offset="1" stop-color="#8F8F8F"/>
</linearGradient>
</defs>
</svg>
