<svg width="44" height="44" viewBox="0 0 44 44" fill="none" xmlns="http://www.w3.org/2000/svg">
<circle cx="22" cy="22" r="22" fill="#8B5A2B"/>
<path d="M22 36.5C18.134 36.5 15 30.366 15 26.5C15 22.634 18.134 19.5 22 19.5C25.866 19.5 29 22.634 29 26.5C29 30.366 25.866 36.5 22 36.5Z" fill="white"/>
<path d="M14.5 20C13.1193 20 12 17.8351 12 16.4706C12 15.1061 13.1193 14 14.5 14C15.8807 14 17 15.1061 17 16.4706C17 17.8351 15.8807 20 14.5 20Z" fill="white"/>
<path d="M22.5 16C21.1193 16 20 13.8351 20 12.4706C20 11.1061 21.1193 10 22.5 10C23.8807 10 25 11.1061 25 12.4706C25 13.8351 23.8807 16 22.5 16Z" fill="white"/>
<path d="M30.5 20C29.1193 20 28 17.8351 28 16.4706C28 15.1061 29.1193 14 30.5 14C31.8807 14 33 15.1061 33 16.4706C33 17.8351 31.8807 20 30.5 20Z" fill="white"/>
</svg>
