<svg width="44" height="44" viewBox="0 0 44 44" fill="none" xmlns="http://www.w3.org/2000/svg">
<circle cx="22" cy="22" r="22" fill="url(#paint0_linear_2244_7521)"/>
<g filter="url(#filter0_d_2244_7521)">
<path d="M22 36.5C18.134 36.5 15 30.366 15 26.5C15 22.634 18.134 19.5 22 19.5C25.866 19.5 29 22.634 29 26.5C29 30.366 25.866 36.5 22 36.5Z" fill="white" fill-opacity="0.99" shape-rendering="crispEdges"/>
</g>
<g filter="url(#filter1_d_2244_7521)">
<path d="M14.5 20C13.1193 20 12 17.8351 12 16.4706C12 15.1061 13.1193 14 14.5 14C15.8807 14 17 15.1061 17 16.4706C17 17.8351 15.8807 20 14.5 20Z" fill="white" fill-opacity="0.99"/>
<path d="M22.5 16C21.1193 16 20 13.8351 20 12.4706C20 11.1061 21.1193 10 22.5 10C23.8807 10 25 11.1061 25 12.4706C25 13.8351 23.8807 16 22.5 16Z" fill="white" fill-opacity="0.99"/>
<path d="M30.5 20C29.1193 20 28 17.8351 28 16.4706C28 15.1061 29.1193 14 30.5 14C31.8807 14 33 15.1061 33 16.4706C33 17.8351 31.8807 20 30.5 20Z" fill="white" fill-opacity="0.99"/>
</g>
<path d="M5.28705 25.7583C4.76569 25.863 4.25532 25.5255 4.17938 24.9992C3.89773 23.0473 3.94773 21.0594 4.32955 19.1198C4.77344 16.865 5.65711 14.7196 6.93011 12.8063C8.20311 10.8929 9.8405 9.24905 11.7488 7.96851C13.3903 6.86703 15.2045 6.05293 17.1137 5.55862C17.6285 5.42533 18.137 5.76568 18.2418 6.28705V6.28705C18.3465 6.80841 18.0078 7.31304 17.4939 7.44983C15.8324 7.8921 14.2533 8.60708 12.8219 9.56762C11.1236 10.7072 9.66636 12.1702 8.53344 13.873C7.40053 15.5758 6.6141 17.4851 6.21906 19.4918C5.8861 21.1832 5.83667 22.9159 6.07064 24.6193C6.143 25.1461 5.80841 25.6535 5.28705 25.7583V25.7583Z" fill="white" fill-opacity="0.4" style="mix-blend-mode:overlay"/>
<defs>
<filter id="filter0_d_2244_7521" x="15" y="19.5" width="15" height="20" filterUnits="userSpaceOnUse" color-interpolation-filters="sRGB">
<feFlood flood-opacity="0" result="BackgroundImageFix"/>
<feColorMatrix in="SourceAlpha" type="matrix" values="0 0 0 0 0 0 0 0 0 0 0 0 0 0 0 0 0 0 127 0" result="hardAlpha"/>
<feOffset dx="1" dy="3"/>
<feComposite in2="hardAlpha" operator="out"/>
<feColorMatrix type="matrix" values="0 0 0 0 0 0 0 0 0 0 0 0 0 0 0 0 0 0 0.25 0"/>
<feBlend mode="normal" in2="BackgroundImageFix" result="effect1_dropShadow_2244_7521"/>
<feBlend mode="normal" in="SourceGraphic" in2="effect1_dropShadow_2244_7521" result="shape"/>
</filter>
<filter id="filter1_d_2244_7521" x="12" y="10" width="22" height="13" filterUnits="userSpaceOnUse" color-interpolation-filters="sRGB">
<feFlood flood-opacity="0" result="BackgroundImageFix"/>
<feColorMatrix in="SourceAlpha" type="matrix" values="0 0 0 0 0 0 0 0 0 0 0 0 0 0 0 0 0 0 127 0" result="hardAlpha"/>
<feOffset dx="1" dy="3"/>
<feComposite in2="hardAlpha" operator="out"/>
<feColorMatrix type="matrix" values="0 0 0 0 0 0 0 0 0 0 0 0 0 0 0 0 0 0 0.25 0"/>
<feBlend mode="normal" in2="BackgroundImageFix" result="effect1_dropShadow_2244_7521"/>
<feBlend mode="normal" in="SourceGraphic" in2="effect1_dropShadow_2244_7521" result="shape"/>
</filter>
<linearGradient id="paint0_linear_2244_7521" x1="2.86206" y1="-9.89468e-07" x2="41.1379" y2="44" gradientUnits="userSpaceOnUse">
<stop stop-color="#A3755B"/>
<stop offset="1" stop-color="#776056"/>
</linearGradient>
</defs>
</svg>
