<svg width="36" height="36" viewBox="0 0 36 36" fill="none" xmlns="http://www.w3.org/2000/svg">
<rect width="36" height="36" rx="18" fill="#E3E6E8"/>
<path d="M21 15.8349H15C14.2491 15.7914 13.5121 16.0579 12.95 16.5762C12.3879 17.0946 12.0464 17.8226 12 18.6013V22.0593C12.0464 22.8381 12.3879 23.566 12.95 24.0844C13.5121 24.6028 14.2491 24.8692 15 24.8257H21C21.7509 24.8692 22.4879 24.6028 23.05 24.0844C23.6121 23.566 23.9536 22.8381 24 22.0593V18.6013C23.9536 17.8226 23.6121 17.0946 23.05 16.5762C22.4879 16.0579 21.7509 15.7914 21 15.8349Z" stroke="#464E53" stroke-width="1.44" stroke-linecap="round" stroke-linejoin="round"/>
<path d="M21 15.8303V14.4018C21 13.4545 20.6839 12.5462 20.1213 11.8764C19.5587 11.2066 18.7957 10.8303 18 10.8303C17.2043 10.8303 16.4413 11.2066 15.8787 11.8764C15.3161 12.5462 15 13.4545 15 14.4018V15.8303" stroke="#464E53" stroke-width="1.44" stroke-linecap="round" stroke-linejoin="round"/>
</svg>
