<svg width="44" height="44" viewBox="0 0 44 44" fill="none" xmlns="http://www.w3.org/2000/svg">
<circle cx="22" cy="22" r="22" fill="url(#paint0_linear_2244_7516)"/>
<g filter="url(#filter0_d_2244_7516)">
<path d="M32.9932 27.305C32.9741 27.108 32.8235 25.577 32.7307 25.0107C32.6179 24.3227 32.2642 22.5575 31.4177 21.0285C30.2601 18.9375 28.852 18.4986 27.8745 18.4986C27.7586 18.4986 27.6418 18.5048 27.5243 18.5171C26.3504 13.5631 23.6849 13 22.5387 13C20.6942 13 18.8818 14.3372 17.9726 16.2796C17.8632 16.272 17.7541 16.2682 17.6456 16.2682C15.4347 16.2682 13.5337 17.7855 12.4301 20.4311C11.9161 21.6633 11.2724 23.6675 11.0738 25.1568C11.0192 25.5662 10.9861 26.3505 11.0057 26.7706C11.0661 28.0623 12.0697 28.9999 13.3923 28.9999H17.0363C17.8553 28.9999 18.5743 28.7327 19.0093 28.2669C19.3159 27.9386 19.4754 27.5201 19.4583 27.0887C19.4518 26.9232 19.4065 26.7618 19.3264 26.6183C19.0756 26.1688 18.943 25.6502 18.943 25.1188C18.943 23.5418 20.1021 22.2587 21.5269 22.2587C22.9516 22.2587 24.1108 23.5418 24.1108 25.1188C24.1108 25.664 23.9839 26.2971 23.7996 26.6829C23.7269 26.809 23.6795 26.9532 23.6648 27.109C23.6548 27.2152 23.661 27.3195 23.6812 27.4188C23.8404 28.3549 24.8108 29 26.0831 29H30.4193C31.029 29 32.1337 28.9054 32.6821 28.2719C32.9194 27.9977 33.0295 27.6548 32.9932 27.305Z" fill="white" fill-opacity="0.99" shape-rendering="crispEdges"/>
</g>
<path d="M5.28705 25.7583C4.76569 25.863 4.25532 25.5255 4.17938 24.9992C3.89773 23.0473 3.94773 21.0594 4.32955 19.1198C4.77344 16.865 5.65711 14.7196 6.93011 12.8063C8.20311 10.8929 9.8405 9.24905 11.7488 7.96851C13.3903 6.86703 15.2045 6.05293 17.1137 5.55862C17.6285 5.42533 18.137 5.76568 18.2418 6.28705V6.28705C18.3465 6.80841 18.0078 7.31304 17.4939 7.44983C15.8324 7.8921 14.2533 8.60708 12.8219 9.56762C11.1236 10.7072 9.66636 12.1702 8.53344 13.873C7.40053 15.5758 6.6141 17.4851 6.21906 19.4918C5.8861 21.1832 5.83667 22.9159 6.07064 24.6193C6.143 25.1461 5.80841 25.6535 5.28705 25.7583V25.7583Z" fill="white" fill-opacity="0.4" style="mix-blend-mode:overlay"/>
<defs>
<filter id="filter0_d_2244_7516" x="11" y="13" width="23" height="19" filterUnits="userSpaceOnUse" color-interpolation-filters="sRGB">
<feFlood flood-opacity="0" result="BackgroundImageFix"/>
<feColorMatrix in="SourceAlpha" type="matrix" values="0 0 0 0 0 0 0 0 0 0 0 0 0 0 0 0 0 0 127 0" result="hardAlpha"/>
<feOffset dx="1" dy="3"/>
<feComposite in2="hardAlpha" operator="out"/>
<feColorMatrix type="matrix" values="0 0 0 0 0 0 0 0 0 0 0 0 0 0 0 0 0 0 0.25 0"/>
<feBlend mode="normal" in2="BackgroundImageFix" result="effect1_dropShadow_2244_7516"/>
<feBlend mode="normal" in="SourceGraphic" in2="effect1_dropShadow_2244_7516" result="shape"/>
</filter>
<linearGradient id="paint0_linear_2244_7516" x1="2.86206" y1="-9.89468e-07" x2="41.1379" y2="44" gradientUnits="userSpaceOnUse">
<stop stop-color="#E26C06"/>
<stop offset="1" stop-color="#844106"/>
</linearGradient>
</defs>
</svg>
