<svg width="24" height="24" viewBox="0 0 24 24" fill="none" xmlns="http://www.w3.org/2000/svg">
<path d="M20.8407 5.20312C15.4551 15.4175 8.54307 15.4079 3.15747 5.20312" stroke="#464E53" stroke-width="1.44" stroke-linecap="round" stroke-linejoin="round"/>
<path d="M2.39062 7.09441V16.6944C2.39062 17.7129 2.7952 18.6895 3.51533 19.4097C4.23548 20.1298 5.2122 20.5344 6.23062 20.5344H17.7506C18.7691 20.5344 19.7458 20.1298 20.4659 19.4097C21.1861 18.6895 21.5906 17.7129 21.5906 16.6944V7.09441C21.5906 6.07598 21.1861 5.0992 20.4659 4.37906C19.7458 3.65892 18.7691 3.25441 17.7506 3.25441H6.23062C5.2122 3.25441 4.23548 3.65892 3.51533 4.37906C2.7952 5.0992 2.39062 6.07598 2.39062 7.09441Z" stroke="#464E53" stroke-width="1.44" stroke-linecap="round" stroke-linejoin="round"/>
</svg>
