<svg width="261" height="223" viewBox="0 0 261 223" fill="none" xmlns="http://www.w3.org/2000/svg">
<g opacity="0.6">
<ellipse cx="138.353" cy="211.289" rx="93.6068" ry="11.2965" fill="black" fill-opacity="0.25" style="mix-blend-mode:overlay"/>
</g>
<path d="M94.4971 28.0795C89.3274 22.9102 89.3274 14.5291 94.4971 9.3598C99.6668 4.1905 108.048 4.1905 113.218 9.3598C118.388 14.5291 114.644 19.1663 109.474 24.3356C104.304 29.5049 99.6668 33.2488 94.4971 28.0795Z" fill="#FF8731"/>
<path d="M99.3547 26.8652C95.8618 23.3725 95.8618 17.7097 99.3547 14.217C102.848 10.7244 108.511 10.7244 112.004 14.217C115.497 17.7097 112.967 20.8429 109.474 24.3355C105.981 27.8282 102.848 30.3578 99.3547 26.8652Z" fill="black" fill-opacity="0.32"/>
<path d="M191.963 28.0802C197.132 22.9109 197.132 14.5298 191.963 9.36053C186.793 4.19123 178.411 4.19123 173.242 9.36053C168.072 14.5298 171.816 19.167 176.986 24.3363C182.155 29.5056 186.793 33.2495 191.963 28.0802Z" fill="#FF8731"/>
<path d="M187.105 26.8656C190.598 23.373 190.598 17.7102 187.105 14.2175C183.612 10.7248 177.949 10.7248 174.456 14.2175C170.963 17.7102 173.493 20.8433 176.986 24.336C180.479 27.8287 183.612 30.3583 187.105 26.8656Z" fill="black" fill-opacity="0.32"/>
<path d="M144.63 171.894C142.587 155.142 155.661 140.377 172.537 140.377C189.413 140.377 202.487 155.142 200.444 171.894L198.105 191.072C196.528 203.995 185.556 213.711 172.537 213.711C159.518 213.711 148.545 203.995 146.969 191.072L144.63 171.894Z" fill="#FFAC71"/>
<path d="M86.2645 171.894C84.2213 155.142 97.2947 140.377 114.171 140.377C131.047 140.377 144.121 155.142 142.078 171.894L139.739 191.072C138.163 203.995 127.19 213.711 114.171 213.711C101.152 213.711 90.1795 203.995 88.6034 191.072L86.2645 171.894Z" fill="#FFAC71"/>
<g filter="url(#filter0_i_2673_19644)">
<path d="M184.424 79.6403C198.812 55.131 221.954 59.024 232.164 78.8836C247.592 108.892 240.813 157.589 232.279 159.997C204.081 167.956 192.988 100.595 184.424 79.6403Z" fill="#FF8731"/>
</g>
<g filter="url(#filter1_i_2673_19644)">
<path d="M54.9713 112.854C62.6187 142.672 108.579 104.61 98.0698 88.3502C90.3763 76.4462 53.7431 16.6576 45.4566 19.8132C18.0751 30.2404 49.3476 90.9259 54.9713 112.854Z" fill="#FF8731"/>
</g>
<g filter="url(#filter2_di_2673_19644)">
<path d="M227.253 113.657C227.253 155.509 189.763 189.436 143.515 189.436C97.2683 189.436 59.7776 155.509 59.7776 113.657C59.7776 71.8061 97.2683 7.15808 143.515 7.15808C189.763 7.15808 227.253 71.8061 227.253 113.657Z" fill="#FF8731"/>
</g>
<path d="M179.663 155.008C179.663 169.106 163.369 177.198 143.269 177.198C123.169 177.198 106.875 169.106 106.875 155.008C106.875 150.92 123.169 152.079 143.269 152.079C163.369 152.079 179.663 150.92 179.663 155.008Z" fill="white" fill-opacity="0.39"/>
<ellipse opacity="0.2" cx="121.493" cy="52.8244" rx="13.849" ry="13.8479" fill="black"/>
<ellipse cx="121.493" cy="56.045" rx="10.6283" ry="10.6275" fill="black"/>
<circle cx="122.379" cy="56.5608" r="2.89862" fill="white"/>
<ellipse opacity="0.2" cx="13.849" cy="13.8479" rx="13.849" ry="13.8479" transform="matrix(-1 0 0 1 179.015 38.9764)" fill="black"/>
<ellipse cx="10.6283" cy="10.6275" rx="10.6283" ry="10.6275" transform="matrix(-1 0 0 1 175.794 45.4175)" fill="black"/>
<circle cx="2.89862" cy="2.89862" r="2.89862" transform="matrix(-1 0 0 1 166.796 53.6622)" fill="white"/>
<g filter="url(#filter3_d_2673_19644)">
<path d="M180.689 90.2463C180.689 110.522 163.963 126.959 143.329 126.959C122.696 126.959 105.969 110.522 105.969 90.2463C105.969 79.6315 122.696 72.8558 143.329 72.8558C163.963 72.8558 180.689 79.6315 180.689 90.2463Z" fill="white" fill-opacity="0.5" shape-rendering="crispEdges"/>
</g>
<path d="M165.23 100.551C165.23 102.396 152.011 115.378 143.651 115.378C135.291 115.378 122.073 102.396 122.073 100.551C122.073 101.887 135.291 106.533 143.651 106.533C152.011 106.533 165.23 101.887 165.23 100.551Z" fill="black"/>
<mask id="mask0_2673_19644" style="mask-type:alpha" maskUnits="userSpaceOnUse" x="122" y="100" width="44" height="16">
<path d="M165.23 100.551C165.23 102.396 152.011 115.378 143.651 115.378C135.291 115.378 122.073 102.396 122.073 100.551C122.073 101.887 135.291 106.533 143.651 106.533C152.011 106.533 165.23 101.887 165.23 100.551Z" fill="black"/>
</mask>
<g mask="url(#mask0_2673_19644)">
<ellipse cx="143.756" cy="121.811" rx="13.133" ry="9.51007" fill="#FF5555"/>
</g>
<path d="M163.332 75.7844C163.332 84.9484 154.411 92.3773 143.406 92.3773C132.402 92.3773 123.48 84.9484 123.48 75.7844C123.48 70.9869 132.402 67.9246 143.406 67.9246C154.411 67.9246 163.332 70.9869 163.332 75.7844Z" fill="black"/>
<defs>
<filter id="filter0_i_2673_19644" x="184.424" y="62.6029" width="56.9511" height="98.0443" filterUnits="userSpaceOnUse" color-interpolation-filters="sRGB">
<feFlood flood-opacity="0" result="BackgroundImageFix"/>
<feBlend mode="normal" in="SourceGraphic" in2="BackgroundImageFix" result="shape"/>
<feColorMatrix in="SourceAlpha" type="matrix" values="0 0 0 0 0 0 0 0 0 0 0 0 0 0 0 0 0 0 127 0" result="hardAlpha"/>
<feOffset dy="2.62826"/>
<feComposite in2="hardAlpha" operator="arithmetic" k2="-1" k3="1"/>
<feColorMatrix type="matrix" values="0 0 0 0 1 0 0 0 0 1 0 0 0 0 1 0 0 0 0.55 0"/>
<feBlend mode="normal" in2="shape" result="effect1_innerShadow_2673_19644"/>
</filter>
<filter id="filter1_i_2673_19644" x="34.3725" y="19.6927" width="65.251" height="104.235" filterUnits="userSpaceOnUse" color-interpolation-filters="sRGB">
<feFlood flood-opacity="0" result="BackgroundImageFix"/>
<feBlend mode="normal" in="SourceGraphic" in2="BackgroundImageFix" result="shape"/>
<feColorMatrix in="SourceAlpha" type="matrix" values="0 0 0 0 0 0 0 0 0 0 0 0 0 0 0 0 0 0 127 0" result="hardAlpha"/>
<feOffset dy="2.62826"/>
<feComposite in2="hardAlpha" operator="arithmetic" k2="-1" k3="1"/>
<feColorMatrix type="matrix" values="0 0 0 0 1 0 0 0 0 1 0 0 0 0 1 0 0 0 0.55 0"/>
<feBlend mode="normal" in2="shape" result="effect1_innerShadow_2673_19644"/>
</filter>
<filter id="filter2_di_2673_19644" x="59.7776" y="7.15808" width="167.476" height="185.9" filterUnits="userSpaceOnUse" color-interpolation-filters="sRGB">
<feFlood flood-opacity="0" result="BackgroundImageFix"/>
<feColorMatrix in="SourceAlpha" type="matrix" values="0 0 0 0 0 0 0 0 0 0 0 0 0 0 0 0 0 0 127 0" result="hardAlpha"/>
<feOffset dy="3.62289"/>
<feComposite in2="hardAlpha" operator="out"/>
<feColorMatrix type="matrix" values="0 0 0 0 0 0 0 0 0 0 0 0 0 0 0 0 0 0 0.35 0"/>
<feBlend mode="soft-light" in2="BackgroundImageFix" result="effect1_dropShadow_2673_19644"/>
<feBlend mode="normal" in="SourceGraphic" in2="effect1_dropShadow_2673_19644" result="shape"/>
<feColorMatrix in="SourceAlpha" type="matrix" values="0 0 0 0 0 0 0 0 0 0 0 0 0 0 0 0 0 0 127 0" result="hardAlpha"/>
<feOffset dy="2.62826"/>
<feComposite in2="hardAlpha" operator="arithmetic" k2="-1" k3="1"/>
<feColorMatrix type="matrix" values="0 0 0 0 1 0 0 0 0 1 0 0 0 0 1 0 0 0 0.55 0"/>
<feBlend mode="normal" in2="shape" result="effect2_innerShadow_2673_19644"/>
</filter>
<filter id="filter3_d_2673_19644" x="105.969" y="72.8558" width="76.9102" height="56.7319" filterUnits="userSpaceOnUse" color-interpolation-filters="sRGB">
<feFlood flood-opacity="0" result="BackgroundImageFix"/>
<feColorMatrix in="SourceAlpha" type="matrix" values="0 0 0 0 0 0 0 0 0 0 0 0 0 0 0 0 0 0 127 0" result="hardAlpha"/>
<feOffset dx="2.19022" dy="2.62826"/>
<feComposite in2="hardAlpha" operator="out"/>
<feColorMatrix type="matrix" values="0 0 0 0 0 0 0 0 0 0 0 0 0 0 0 0 0 0 0.12 0"/>
<feBlend mode="normal" in2="BackgroundImageFix" result="effect1_dropShadow_2673_19644"/>
<feBlend mode="normal" in="SourceGraphic" in2="effect1_dropShadow_2673_19644" result="shape"/>
</filter>
</defs>
</svg>
