<svg width="211" height="173" viewBox="0 0 211 173" fill="none" xmlns="http://www.w3.org/2000/svg">
<path d="M76.395 22.701C72.2158 18.5219 72.2158 11.7461 76.395 7.56695C80.5742 3.38778 87.3499 3.38778 91.5291 7.56695C95.7083 11.7461 92.6815 15.4951 88.5023 19.6742C84.3231 23.8534 80.5742 26.8802 76.395 22.701Z" fill="#FF8731"/>
<path d="M80.3219 21.7196C77.4982 18.8959 77.4982 14.3178 80.3219 11.4941C83.1456 8.67044 87.7237 8.67044 90.5473 11.4941C93.371 14.3178 91.3259 16.8508 88.5023 19.6745C85.6786 22.4982 83.1456 24.5433 80.3219 21.7196Z" fill="black" fill-opacity="0.32"/>
<path d="M155.188 22.7015C159.367 18.5224 159.367 11.7466 155.188 7.56744C151.008 3.38827 144.233 3.38827 140.053 7.56744C135.874 11.7466 138.901 15.4955 143.08 19.6747C147.259 23.8539 151.008 26.8807 155.188 22.7015Z" fill="#FF8731"/>
<path d="M151.261 21.7201C154.084 18.8964 154.084 14.3183 151.261 11.4946C148.437 8.67092 143.859 8.67092 141.035 11.4946C138.211 14.3183 140.257 16.8513 143.08 19.675C145.904 22.4987 148.437 24.5438 151.261 21.7201Z" fill="black" fill-opacity="0.32"/>
<path d="M116.923 138.972C115.272 125.429 125.84 113.493 139.484 113.493C153.127 113.493 163.696 125.429 162.045 138.972L160.153 154.48C158.879 164.928 150.009 172.782 139.484 172.782C128.959 172.782 120.088 164.928 118.814 154.48L116.923 138.972Z" fill="#FFAC71"/>
<path d="M69.7383 138.972C68.0867 125.429 78.6557 113.493 92.2991 113.493C105.942 113.493 116.511 125.429 114.86 138.972L112.969 154.48C111.694 164.928 102.824 172.782 92.2991 172.782C81.7739 172.782 72.9037 164.928 71.6296 154.48L69.7383 138.972Z" fill="#FFAC71"/>
<g>
<path d="M149.093 64.3878C160.726 44.5724 179.434 47.7198 187.688 63.7761C200.161 88.0375 194.68 127.408 187.781 129.355C164.985 135.79 156.017 81.3296 149.093 64.3878Z" fill="#FF8731"/>
</g>
<g>
<path d="M44.4405 91.2404C50.6229 115.348 87.7782 84.5758 79.2826 71.4296C73.0629 61.8054 43.4476 13.4671 36.7486 16.0183C14.6125 24.4486 39.8941 73.5121 44.4405 91.2404Z" fill="#FF8731"/>
</g>
<g>
<path d="M183.718 91.8902C183.718 125.726 153.41 153.156 116.022 153.156C78.6345 153.156 48.3259 125.726 48.3259 91.8902C48.3259 58.054 78.6345 5.78687 116.022 5.78687C153.41 5.78687 183.718 58.054 183.718 91.8902Z" fill="#FF8731"/>
</g>
<path d="M145.244 125.322C145.244 136.72 132.072 143.262 115.823 143.262C99.5735 143.262 86.4009 136.72 86.4009 125.322C86.4009 122.017 99.5735 122.953 115.823 122.953C132.072 122.953 145.244 122.017 145.244 125.322Z" fill="white" fill-opacity="0.39"/>
<circle opacity="0.2" cx="98.2184" cy="42.7074" r="11.1959" fill="black"/>
<circle cx="98.2184" cy="45.3112" r="8.5922" fill="black"/>
<circle cx="98.9349" cy="45.7281" r="2.34333" fill="white"/>
<circle opacity="0.2" cx="11.1959" cy="11.1959" r="11.1959" transform="matrix(-1 0 0 1 144.72 31.5115)" fill="black"/>
<circle cx="8.5922" cy="8.5922" r="8.5922" transform="matrix(-1 0 0 1 142.117 36.719)" fill="black"/>
<circle cx="2.34333" cy="2.34333" r="2.34333" transform="matrix(-1 0 0 1 134.842 43.3848)" fill="white"/>
<g>
<path d="M146.074 72.9623C146.074 89.3553 132.552 102.644 115.872 102.644C99.191 102.644 85.6687 89.3553 85.6687 72.9623C85.6687 64.3804 99.191 58.9023 115.872 58.9023C132.552 58.9023 146.074 64.3804 146.074 72.9623Z" fill="white" fill-opacity="0.5" shape-rendering="crispEdges"/>
</g>
<path d="M133.577 81.2942C133.577 82.7854 122.891 93.2809 116.132 93.2809C109.374 93.2809 98.6873 82.7854 98.6873 81.2942C98.6873 82.3745 109.374 86.1301 116.132 86.1301C122.891 86.1301 133.577 82.3745 133.577 81.2942Z" fill="black"/>
<mask id="mask0_2222_9854" style="mask-type:alpha" maskUnits="userSpaceOnUse" x="98" y="81" width="36" height="13">
<path d="M133.577 81.2942C133.577 82.7854 122.891 93.2809 116.132 93.2809C109.374 93.2809 98.6873 82.7854 98.6873 81.2942C98.6873 82.3745 109.374 86.1301 116.132 86.1301C122.891 86.1301 133.577 82.3745 133.577 81.2942Z" fill="black"/>
</mask>
<g mask="url(#mask0_2222_9854)">
<ellipse cx="116.217" cy="98.4824" rx="10.6171" ry="7.68822" fill="#FF5555"/>
</g>
<path d="M132.042 61.2703C132.042 68.6793 124.83 74.6855 115.934 74.6855C107.037 74.6855 99.8252 68.6793 99.8252 61.2703C99.8252 57.3916 107.037 54.9158 115.934 54.9158C124.83 54.9158 132.042 57.3916 132.042 61.2703Z" fill="black"/>
</svg>
