<svg width="211" height="220" viewBox="0 0 211 220" fill="none" xmlns="http://www.w3.org/2000/svg">
<path d="M54.3225 28.8149C49.0178 23.5102 49.0178 14.9096 54.3225 9.60494C59.6272 4.30026 68.2277 4.30026 73.5324 9.60494C78.8371 14.9096 74.9951 19.6682 69.6904 24.9729C64.3858 30.2776 59.6272 34.1196 54.3225 28.8149Z" fill="#FF8731"/>
<path d="M59.3068 27.5687C55.7226 23.9846 55.7226 18.1735 59.3068 14.5893C62.8909 11.0052 68.702 11.0052 72.2861 14.5893C75.8703 18.1735 73.2744 21.3887 69.6903 24.9728C66.1061 28.557 62.8909 31.1529 59.3068 27.5687Z" fill="black" fill-opacity="0.32"/>
<path d="M154.335 28.8154C159.64 23.5107 159.64 14.9101 154.335 9.60542C149.03 4.30074 140.43 4.30074 135.125 9.60542C129.82 14.9101 133.662 19.6687 138.967 24.9734C144.272 30.2781 149.03 34.1201 154.335 28.8154Z" fill="#FF8731"/>
<path d="M149.351 27.5694C152.935 23.9853 152.935 18.1742 149.351 14.5901C145.767 11.0059 139.955 11.0059 136.371 14.5901C132.787 18.1742 135.383 21.3894 138.967 24.9736C142.551 28.5577 145.767 31.1536 149.351 27.5694Z" fill="black" fill-opacity="0.32"/>
<path d="M101.118 176.399C99.022 159.209 112.437 144.058 129.755 144.058C147.073 144.058 160.488 159.209 158.392 176.399L155.991 196.084C154.374 209.346 143.115 219.315 129.755 219.315C116.395 219.315 105.136 209.346 103.519 196.084L101.118 176.399Z" fill="#FFAC71"/>
<path d="M41.226 176.399C39.1296 159.209 52.5449 144.058 69.8627 144.058C87.1805 144.058 100.596 159.209 98.4994 176.399L96.0988 196.084C94.4816 209.346 83.2225 219.315 69.8627 219.315C56.503 219.315 45.2439 209.346 43.6266 196.084L41.226 176.399Z" fill="#FFAC71"/>
<g>
<path d="M190.444 116.638C190.444 159.586 151.972 194.403 104.516 194.403C57.0593 194.403 18.5881 159.586 18.5881 116.638C18.5881 73.6887 57.0593 7.34521 104.516 7.34521C151.972 7.34521 190.444 73.6887 190.444 116.638Z" fill="#FF8731"/>
</g>
<path d="M141.404 159.072C141.404 173.54 124.684 181.844 104.058 181.844C83.4328 181.844 66.7126 173.54 66.7126 159.072C66.7126 154.878 83.4328 156.066 104.058 156.066C124.684 156.066 141.404 154.878 141.404 159.072Z" fill="white" fill-opacity="0.39"/>
<circle opacity="0.2" cx="82.6423" cy="54.2092" r="14.2111" fill="black"/>
<circle cx="82.6421" cy="57.5139" r="10.9062" fill="black"/>
<circle cx="81.3232" cy="55.2995" r="4.18233" fill="white"/>
<circle cx="88.7584" cy="60.876" r="1.39411" fill="white"/>
<circle opacity="0.2" cx="14.2111" cy="14.2111" r="14.2111" transform="matrix(-1 0 0 1 141.668 39.998)" fill="black"/>
<circle cx="10.9062" cy="10.9062" r="10.9062" transform="matrix(-1 0 0 1 138.363 46.6077)" fill="black"/>
<circle cx="4.18233" cy="4.18233" r="4.18233" transform="matrix(-1 0 0 1 132.905 51.1172)" fill="white"/>
<circle cx="1.39411" cy="1.39411" r="1.39411" transform="matrix(-1 0 0 1 122.682 58.5525)" fill="white"/>
<g>
<ellipse cx="128.258" cy="73.423" rx="16.7293" ry="9.29407" fill="#FF8731"/>
</g>
<g>
<ellipse cx="80.8585" cy="73.423" rx="16.7293" ry="9.29407" fill="#FF8731"/>
</g>
<g>
<path d="M143.387 92.6122C143.387 113.42 126.223 130.288 105.05 130.288C83.8767 130.288 66.7126 113.42 66.7126 92.6122C66.7126 81.719 83.8767 74.7656 105.05 74.7656C126.223 74.7656 143.387 81.719 143.387 92.6122Z" fill="white" fill-opacity="0.5" shape-rendering="crispEdges"/>
</g>
<path d="M127.523 102.258C127.523 104.151 113.959 119.332 105.38 119.332C96.8015 119.332 83.2373 104.151 83.2373 102.258C83.2373 103.63 96.8015 108.397 105.38 108.397C113.959 108.397 127.523 103.63 127.523 102.258Z" fill="black"/>
<mask id="mask0_2222_9888" style="mask-type:alpha" maskUnits="userSpaceOnUse" x="83" y="102" width="45" height="18">
<path d="M127.523 102.235C127.523 104.128 113.959 119.309 105.38 119.309C96.8015 119.309 83.2373 104.128 83.2373 102.235C83.2373 103.606 96.8015 108.373 105.38 108.373C113.959 108.373 127.523 103.606 127.523 102.235Z" fill="black"/>
</mask>
<g mask="url(#mask0_2222_9888)">
<ellipse cx="104.558" cy="124.052" rx="13.4764" ry="9.75877" fill="#FF5555"/>
</g>
<path d="M85.6843 95.729C86.2557 96.3003 86.8934 99.7774 84.0414 102.629C81.1893 105.482 77.7122 104.844 77.1409 104.272C77.5548 104.686 80.4133 104.706 83.2654 101.854C86.1175 99.0014 86.0982 96.1429 85.6843 95.729Z" fill="black"/>
<path d="M135.004 103.629C134.6 104.329 131.407 105.845 127.913 103.828C124.42 101.811 124.137 98.2876 124.541 97.5879C124.248 98.0948 124.969 100.861 128.462 102.878C131.955 104.894 134.711 104.136 135.004 103.629Z" fill="black"/>
<path d="M125.576 77.7712C125.576 87.1756 116.421 94.7993 105.129 94.7993C93.8363 94.7993 84.6819 87.1756 84.6819 77.7712C84.6819 72.848 93.8363 69.7053 105.129 69.7053C116.421 69.7053 125.576 72.848 125.576 77.7712Z" fill="black"/>
<g>
<path d="M56.7254 103.525C86.3743 92.6199 64.7138 63.9753 40.1785 72.955C23.8109 78.3028 -6.70993 113.422 20.3448 133.596C37.9238 139.95 34.9225 111.545 56.7254 103.525Z" fill="#FF8731"/>
</g>
<g>
<path d="M151.465 104.598C120.004 101.738 133.513 68.4637 159.536 70.7872C176.73 71.7166 215.3 97.74 194.389 124.228C179.053 134.916 174.601 106.702 151.465 104.598Z" fill="#FF8731"/>
</g>
</svg>
