<svg width="24" height="24" viewBox="0 0 24 24" fill="none" xmlns="http://www.w3.org/2000/svg">
<path d="M16.3201 8.94721H7.68011C6.59882 8.8868 5.53756 9.25674 4.72814 9.97622C3.91871 10.6957 3.4269 11.7063 3.36011 12.7872V17.5872C3.4269 18.6682 3.91871 19.6787 4.72814 20.3982C5.53756 21.1177 6.59882 21.4876 7.68011 21.4272H16.3201C17.4014 21.4876 18.4626 21.1177 19.2721 20.3982C20.0815 19.6787 20.5733 18.6682 20.6401 17.5872V12.7872C20.5733 11.7063 20.0815 10.6957 19.2721 9.97622C18.4626 9.25674 17.4014 8.8868 16.3201 8.94721Z" stroke="#464E53" stroke-width="1.44" stroke-linecap="round" stroke-linejoin="round"/>
<path d="M16.8 8.9472V7.0272C16.8 5.75416 16.2942 4.53328 15.394 3.63309C14.4939 2.73292 13.273 2.2272 12 2.2272C10.7269 2.2272 9.50601 2.73292 8.60583 3.63309C7.70566 4.53328 7.19995 5.75416 7.19995 7.0272V8.9472" stroke="#464E53" stroke-width="1.44" stroke-linecap="round" stroke-linejoin="round"/>
</svg>
