<svg width="40" height="40" viewBox="0 0 40 40" fill="none" xmlns="http://www.w3.org/2000/svg">
<path d="M20 33.75C27.5939 33.75 33.75 27.5939 33.75 20C33.75 12.4061 27.5939 6.25 20 6.25C12.4061 6.25 6.25 12.4061 6.25 20C6.25 27.5939 12.4061 33.75 20 33.75Z" fill="url(#paint0_radial_2683_24430)"/>
<path d="M16.25 17.5C17.6307 17.5 18.75 16.3807 18.75 15C18.75 13.6193 17.6307 12.5 16.25 12.5C14.8693 12.5 13.75 13.6193 13.75 15C13.75 16.3807 14.8693 17.5 16.25 17.5Z" fill="url(#paint1_linear_2683_24430)"/>
<path d="M24.375 17.5C25.4105 17.5 26.25 16.6605 26.25 15.625C26.25 14.5895 25.4105 13.75 24.375 13.75C23.3395 13.75 22.5 14.5895 22.5 15.625C22.5 16.6605 23.3395 17.5 24.375 17.5Z" fill="url(#paint2_linear_2683_24430)"/>
<path d="M20.0007 20.0195C16.0274 20.0195 13.4289 20.5098 13.7879 22.5184C14.2802 25.3542 16.8748 27.5156 20.0007 27.5156C23.1216 27.5156 25.7129 25.3611 26.217 22.532C26.5749 20.5237 23.9739 20.0195 20.0007 20.0195Z" fill="url(#paint3_linear_2683_24430)"/>
<path fill-rule="evenodd" clip-rule="evenodd" d="M22.4953 20.1108C22.4392 20.7493 21.9032 21.25 21.2502 21.25H18.7502C18.0966 21.25 17.5602 20.7484 17.5049 20.1092C18.252 20.0453 19.0904 20.0195 20.001 20.0195C20.9107 20.0195 21.7485 20.046 22.4953 20.1108Z" fill="white"/>
<path fill-rule="evenodd" clip-rule="evenodd" d="M25.7224 24.0465C24.7204 26.0952 22.5355 27.5156 20.0014 27.5156C17.4663 27.5156 15.2807 26.094 14.2825 24.044C14.995 23.5543 15.8509 23.1745 16.8501 22.9047C17.8493 22.6349 18.8995 22.5 20.0006 22.5C21.1027 22.5 22.1537 22.6351 23.1537 22.9054C24.1536 23.1757 25.0098 23.556 25.7224 24.0465Z" fill="url(#paint4_linear_2683_24430)" fill-opacity="0.6"/>
<defs>
<radialGradient id="paint0_radial_2683_24430" cx="0" cy="0" r="1" gradientUnits="userSpaceOnUse" gradientTransform="translate(15.4027 13.8114) rotate(53.2971) scale(21.4376)">
<stop stop-color="#FADF73"/>
<stop offset="0.457142" stop-color="#FFD500"/>
<stop offset="1" stop-color="#FC9900"/>
</radialGradient>
<linearGradient id="paint1_linear_2683_24430" x1="17.8308" y1="16.5463" x2="17.8308" y2="14.5775" gradientUnits="userSpaceOnUse">
<stop stop-color="#FF6200"/>
<stop offset="1" stop-color="#E84909"/>
</linearGradient>
<linearGradient id="paint2_linear_2683_24430" x1="25.5606" y1="16.7847" x2="25.5606" y2="15.3082" gradientUnits="userSpaceOnUse">
<stop stop-color="#FF6200"/>
<stop offset="1" stop-color="#E84909"/>
</linearGradient>
<linearGradient id="paint3_linear_2683_24430" x1="20.0024" y1="20.0195" x2="20.0024" y2="27.5156" gradientUnits="userSpaceOnUse">
<stop stop-color="#EA4426"/>
<stop offset="1" stop-color="#EC632D"/>
</linearGradient>
<linearGradient id="paint4_linear_2683_24430" x1="20.0024" y1="22.5" x2="20.0024" y2="25.8173" gradientUnits="userSpaceOnUse">
<stop stop-color="#FF7300"/>
<stop offset="1" stop-color="#FBA200"/>
</linearGradient>
</defs>
</svg>
