<svg width="50" height="52" viewBox="0 0 50 52" fill="none" xmlns="http://www.w3.org/2000/svg">
<g filter="url(#filter0_d_2234_10267)">
<path d="M1 25C1 11.7452 11.7452 1 25 1V1C38.2548 1 49 11.7452 49 25V25C49 38.2548 38.2548 49 25 49V49C11.7452 49 1 38.2548 1 25V25Z" fill="white" shape-rendering="crispEdges"/>
<path d="M25 0.5C38.531 0.5 49.5 11.469 49.5 25C49.5 38.531 38.531 49.5 25 49.5C11.469 49.5 0.5 38.531 0.5 25C0.5 11.469 11.469 0.5 25 0.5Z" stroke="#FFF1D3" shape-rendering="crispEdges"/>
<path d="M26.4112 16.9741C25.7104 17.1853 25.2688 18.7214 25.0864 20.5934C19.9888 20.5934 15.4 25.9408 15.4 32.2768C17.5024 26.5168 22.12 24.9518 25.1344 24.9518C25.3264 26.6414 25.7584 27.9952 26.4112 28.1872C28.4272 28.7728 34.6 24.9423 34.6 22.5806C34.6 20.219 28.4272 16.3885 26.4112 16.9741Z" stroke="#464E53" stroke-width="1.44" stroke-linecap="round" stroke-linejoin="round"/>
</g>
<defs>
<filter id="filter0_d_2234_10267" x="0" y="0" width="50" height="52" filterUnits="userSpaceOnUse" color-interpolation-filters="sRGB">
<feFlood flood-opacity="0" result="BackgroundImageFix"/>
<feColorMatrix in="SourceAlpha" type="matrix" values="0 0 0 0 0 0 0 0 0 0 0 0 0 0 0 0 0 0 127 0" result="hardAlpha"/>
<feOffset dy="2"/>
<feComposite in2="hardAlpha" operator="out"/>
<feColorMatrix type="matrix" values="0 0 0 0 1 0 0 0 0 0.945098 0 0 0 0 0.827451 0 0 0 1 0"/>
<feBlend mode="normal" in2="BackgroundImageFix" result="effect1_dropShadow_2234_10267"/>
<feBlend mode="normal" in="SourceGraphic" in2="effect1_dropShadow_2234_10267" result="shape"/>
</filter>
</defs>
</svg>
