<svg width="32" height="32" viewBox="0 0 32 32" fill="none" xmlns="http://www.w3.org/2000/svg">
<path d="M29.3333 18.6667V16C29.3333 14.8813 29.3333 13.8871 29.3161 13H2.68383C2.66663 13.8871 2.66663 14.8813 2.66663 16V18.6667C2.66663 23.6949 2.66663 26.2092 4.22872 27.7712C5.79083 29.3333 8.30497 29.3333 13.3333 29.3333H18.6666C23.6949 29.3333 26.2092 29.3333 27.7712 27.7712C29.3333 26.2092 29.3333 23.6949 29.3333 18.6667Z" fill="#FFCB61"/>
<path d="M14.2623 25C14.0943 25 13.9623 24.952 13.8663 24.856C13.7703 24.76 13.7223 24.632 13.7223 24.472C13.7223 24.304 13.7703 24.176 13.8663 24.088C13.9623 24 14.0943 23.956 14.2623 23.956H15.7263V17.572H16.3503L14.5983 18.688C14.4703 18.76 14.3503 18.788 14.2383 18.772C14.1343 18.756 14.0423 18.712 13.9623 18.64C13.8903 18.568 13.8383 18.48 13.8063 18.376C13.7823 18.272 13.7903 18.164 13.8303 18.052C13.8783 17.94 13.9623 17.848 14.0823 17.776L15.7383 16.732C15.8743 16.652 16.0023 16.588 16.1223 16.54C16.2503 16.484 16.3703 16.456 16.4823 16.456C16.6183 16.456 16.7303 16.496 16.8183 16.576C16.9143 16.648 16.9623 16.772 16.9623 16.948V23.956H18.3063C18.4823 23.956 18.6183 24 18.7143 24.088C18.8103 24.176 18.8583 24.304 18.8583 24.472C18.8583 24.64 18.8103 24.772 18.7143 24.868C18.6183 24.956 18.4823 25 18.3063 25H14.2623Z" fill="#F5FCFF"/>
<path d="M10.3334 3.3335C10.3334 2.78122 9.88573 2.3335 9.33345 2.3335C8.78117 2.3335 8.33345 2.78122 8.33345 3.3335V5.43918C6.41434 5.59284 5.15447 5.96999 4.22887 6.89559C3.30327 7.82119 2.92613 9.08106 2.77246 11.0002H29.2277C29.0741 9.08106 28.6969 7.82119 27.7713 6.89559C26.8457 5.96999 25.5858 5.59284 23.6668 5.43918V3.3335C23.6668 2.78122 23.219 2.3335 22.6668 2.3335C22.1145 2.3335 21.6668 2.78122 21.6668 3.3335V5.3507C20.7797 5.3335 19.7854 5.3335 18.6668 5.3335H13.3334C12.2147 5.3335 11.2205 5.3335 10.3334 5.3507V3.3335Z" fill="#FFCB61"/>
</svg>
