<svg width="40" height="40" viewBox="0 0 40 40" fill="none" xmlns="http://www.w3.org/2000/svg">
<g clip-path="url(#clip0_2683_24368)">
<path fill-rule="evenodd" clip-rule="evenodd" d="M17.5851 9.4108L12.5214 6.16386C11.5927 5.56833 10.3558 6.01083 10.0077 7.06316L9.02062 10.0469C8.62283 11.2494 9.61996 12.4533 10.8652 12.274L16.6149 11.4464C16.5996 11.5794 16.5917 11.7148 16.5917 11.852C16.5917 13.7724 18.1367 15.3292 20.0426 15.3292C21.9484 15.3292 23.4935 13.7724 23.4935 11.852C23.4935 11.7191 23.4861 11.5879 23.4716 11.4589L29.1343 12.274C30.3796 12.4533 31.3767 11.2494 30.9789 10.0469L29.9919 7.06316C29.6438 6.01083 28.4069 5.56833 27.4781 6.16386L22.4667 9.37725C21.8436 8.75741 20.9874 8.37479 20.0426 8.37479C19.0808 8.37479 18.2109 8.77124 17.5851 9.4108Z" fill="url(#paint0_linear_2683_24368)"/>
<path d="M7.67578 17.0342C7.67578 16.0925 8.43338 15.3291 9.36792 15.3291H30.6318C31.5664 15.3291 32.324 16.0925 32.324 17.0342V32.2243C32.324 33.166 31.5664 33.9294 30.6318 33.9294H9.36792C8.43338 33.9294 7.67578 33.166 7.67578 32.2243V17.0342Z" fill="url(#paint1_linear_2683_24368)"/>
<path d="M5.83423 12.5053C5.83423 11.5637 6.59182 10.8003 7.52637 10.8003H32.4734C33.4079 10.8003 34.1655 11.5637 34.1655 12.5053V17.1039C34.1655 18.0455 33.4079 18.8089 32.4734 18.8089H7.52636C6.59182 18.8089 5.83423 18.0455 5.83423 17.1039V12.5053Z" fill="url(#paint2_radial_2683_24368)"/>
<path d="M15.9451 10.8003H24.0549V18.8089H15.9451V10.8003Z" fill="#FED546"/>
<path d="M16.5061 18.8091H23.4934V33.9294H16.5061V18.8091Z" fill="url(#paint3_linear_2683_24368)"/>
</g>
<defs>
<linearGradient id="paint0_linear_2683_24368" x1="19.9998" y1="5.89648" x2="19.9998" y2="11.752" gradientUnits="userSpaceOnUse">
<stop stop-color="#FFB81E"/>
<stop offset="1" stop-color="#FED546"/>
</linearGradient>
<linearGradient id="paint1_linear_2683_24368" x1="19.9999" y1="15.3291" x2="19.9999" y2="33.9294" gradientUnits="userSpaceOnUse">
<stop stop-color="#FF2B2B"/>
<stop offset="1" stop-color="#FF2E6C"/>
</linearGradient>
<radialGradient id="paint2_radial_2683_24368" cx="0" cy="0" r="1" gradientTransform="matrix(7.96941 14.4205 -13.4091 7.52403 10.4731 14.0697)" gradientUnits="userSpaceOnUse">
<stop stop-color="#FF5B6F"/>
<stop offset="0.46875" stop-color="#FF444F"/>
</radialGradient>
<linearGradient id="paint3_linear_2683_24368" x1="19.9998" y1="18.8091" x2="19.9998" y2="33.9294" gradientUnits="userSpaceOnUse">
<stop stop-color="#FFB81E" stop-opacity="0.66"/>
<stop offset="0.608277" stop-color="#FFB81E"/>
</linearGradient>
<clipPath id="clip0_2683_24368">
<rect width="40" height="40" fill="white"/>
</clipPath>
</defs>
</svg>
