<svg width="24" height="24" viewBox="0 0 24 24" fill="none" xmlns="http://www.w3.org/2000/svg">
<path d="M17.247 12.8225C17.2228 10.3877 19.2325 9.21992 19.3224 9.16092C18.1929 7.50947 16.4332 7.28287 15.807 7.25708C14.3106 7.1051 12.8858 8.13848 12.1266 8.13848C11.3691 8.13848 10.1962 7.27935 8.95539 7.30123C7.32308 7.32545 5.81853 8.25061 4.97854 9.7118C3.28333 12.6525 4.54487 17.0107 6.19672 19.3974C7.00428 20.564 7.96733 21.8768 9.23083 21.8287C10.4486 21.7807 10.9081 21.0411 12.3802 21.0411C13.8523 21.0411 14.2657 21.8287 15.5538 21.8041C16.8634 21.7803 17.6936 20.6152 18.4945 19.4439C19.4216 18.0886 19.8033 16.7763 19.826 16.7099C19.7975 16.6966 17.2732 15.7296 17.247 12.8225Z" fill="white"/>
<path d="M14.8268 5.67753C15.4968 4.86411 15.9508 3.73384 15.8274 2.60864C14.8604 2.64771 13.6899 3.25133 12.9956 4.06397C12.3737 4.78519 11.8298 5.93343 11.9755 7.03831C13.0542 7.12191 14.1544 6.48938 14.8268 5.67753Z" fill="white"/>
</svg>
