<svg width="24" height="24" viewBox="0 0 24 24" fill="none" xmlns="http://www.w3.org/2000/svg">
<path d="M20.6558 12.2856C20.6558 11.6818 20.5974 11.0585 20.5 10.4741H12.0659V13.9218H16.8965C16.7017 15.032 16.059 16.0059 15.1045 16.6293L17.9873 18.8693C19.6819 17.2915 20.6558 14.9931 20.6558 12.2856Z" fill="#4280EF"/>
<path d="M12.0659 21.0119C14.4812 21.0119 16.507 20.2133 17.9873 18.8498L15.1045 16.6293C14.3059 17.1747 13.2736 17.4863 12.0659 17.4863C9.72853 17.4863 7.76122 15.9086 7.04053 13.8049L4.07983 16.0839C5.59914 19.103 8.6767 21.0119 12.0659 21.0119Z" fill="#34A353"/>
<path d="M7.04063 13.7854C6.67054 12.6752 6.67054 11.4675 7.04063 10.3573L4.07994 8.05884C2.81385 10.591 2.81385 13.5712 4.07994 16.0839L7.04063 13.7854Z" fill="#F6B704"/>
<path d="M12.0659 6.67588C13.332 6.6564 14.5786 7.14336 15.4941 8.01988L18.0457 5.44875C16.4291 3.92944 14.2864 3.11135 12.0659 3.13083C8.6767 3.13083 5.59914 5.0397 4.07983 8.05883L7.04053 10.3573C7.76122 8.23414 9.72853 6.67588 12.0659 6.67588Z" fill="#E54335"/>
</svg>
